<?xml version="1.0" encoding="utf-8"?>
<!-- Generator: Adobe Illustrator 16.0.0, SVG Export Plug-In . SVG Version: 6.00 Build 0)  -->
<!DOCTYPE svg PUBLIC "-//W3C//DTD SVG 1.1//EN" "http://www.w3.org/Graphics/SVG/1.1/DTD/svg11.dtd">
<svg version="1.1" id="Layer_1" xmlns="http://www.w3.org/2000/svg" xmlns:xlink="http://www.w3.org/1999/xlink" x="0px" y="0px"
	 width="682px" height="614px" viewBox="0 0 682 614" enable-background="new 0 0 682 614" xml:space="preserve">
<g>
	<defs>
		<rect id="SVGID_1_" width="552" height="562"/>
	</defs>
	<clipPath id="SVGID_2_">
		<use xlink:href="#SVGID_1_"  overflow="visible"/>
	</clipPath>
	<g clip-path="url(#SVGID_2_)">
		
			<radialGradient id="SVGID_3_" cx="-54.3022" cy="613.5059" r="1" gradientTransform="matrix(276.007 0 0 -275.972 15263.8809 169586.3125)" gradientUnits="userSpaceOnUse">
			<stop  offset="0.81" style="stop-color:#008BC4"/>
			<stop  offset="0.9792" style="stop-color:#000000;stop-opacity:0"/>
		</radialGradient>
		<path fill="url(#SVGID_3_)" d="M552.013,275.985c0,152.404-123.596,275.946-276.019,275.946
			c-40.554,0.056-80.616-8.871-117.31-26.134c-7.025-3.295-13.892-6.906-20.588-10.768c-26.729-15.44-50.678-35.255-70.847-58.621
			c-7.352-8.463-14.175-17.371-20.431-26.674c-8.554-12.705-16.023-26.107-22.328-40.065C8.321,353.953-0.016,315.19,0.04,275.985
			c-0.051-39.276,8.313-78.108,24.529-113.881c5.014-11.095,10.778-21.834,17.254-32.144c13.891-22.271,30.899-42.438,50.509-59.886
			C142.818,24.879,208.23-0.064,275.994,0.04c22.061-0.014,44.046,2.614,65.482,7.829c28.795,7.007,56.266,18.638,81.339,34.437
			c4.823,3.044,9.543,6.208,14.13,9.542c3.849,2.755,7.632,5.641,11.321,8.606c18.119,14.427,34.342,31.085,48.282,49.58
			c29.805,39.445,48.377,86.22,53.751,135.363C551.453,255.552,552.025,265.765,552.013,275.985z"/>
		
			<radialGradient id="SVGID_4_" cx="-54.3457" cy="613.5039" r="1.0004" gradientTransform="matrix(352.047 0 0 -352.003 19353.3105 216147.5781)" gradientUnits="userSpaceOnUse">
			<stop  offset="0" style="stop-color:#7C83FF"/>
			<stop  offset="0.84" style="stop-color:#482088"/>
			<stop  offset="0.95" style="stop-color:#403B77"/>
			<stop  offset="1" style="stop-color:#4D79D1"/>
		</radialGradient>
		<path fill="url(#SVGID_4_)" d="M532.044,275.985c0,141.387-114.673,255.994-256.051,255.994
			c-37.634,0.056-74.813-8.231-108.86-24.264c-6.511-3.044-12.878-6.392-19.099-9.977c-24.793-14.33-47.011-32.71-65.733-54.377
			c-6.818-7.852-13.144-16.117-18.941-24.751c-7.94-11.788-14.88-24.22-20.747-37.165c-14.992-33.125-22.722-69.074-22.671-105.433
			c-0.052-36.436,7.706-72.459,22.75-105.645c4.65-10.295,10.001-20.26,16.015-29.824c12.89-20.66,28.674-39.367,46.872-55.55
			c46.835-41.923,107.513-65.063,170.375-64.974c20.468-0.01,40.864,2.433,60.75,7.275c26.712,6.493,52.192,17.277,75.447,31.934
			c4.481,2.833,8.845,5.772,13.102,8.856c3.585,2.557,7.091,5.272,10.545,7.987c16.793,13.412,31.828,28.888,44.749,46.061
			c27.655,36.583,44.886,79.972,49.863,125.559C531.486,257.083,532.031,266.53,532.044,275.985z"/>
		<g opacity="0.5">
			<g opacity="0.5">
				<path fill="#C4B0B8" d="M530.463,247.624c-0.895,1.647-1.662,3.361-2.294,5.126c-0.963,2.559-2.173,5.017-3.611,7.341
					c-1.49,3.039-2.811,6.159-3.954,9.344c-2.979,6.893-5.168,14.379-7.646,21.469c-2.754,7.908-5.351,15.815-8.738,23.459
					c-1.516,3.466-3.73,6.59-5.272,9.977s-3.059,6.708-4.943,9.989c-4.666,8.013-8.884,16.185-13.826,24.065
					c-8.884,14.194-19.574,26.807-29.934,39.92c-5.272,6.59-11.415,12.349-17.412,18.306c-6.775,6.695-12.733,14.194-19.771,20.744
					c-5.35,5.307-11.134,10.155-17.293,14.497c-3.533,2.333-6.933,4.929-10.466,7.223c-4.521,2.939-9.833,4.599-14.657,6.971
					c-16.041,7.724-33.215,12.547-50.086,17.964c-16.529,5.271-32.465,12.508-49.336,16.725c-3.467,0.87-6.973,1.213-10.479,1.924
					c-3.796,0.751-7.447,1.845-11.335,2.254c-7.751,0.87-15.25,3.466-23.08,3.954c-5.47,0.263-10.545-0.791-15.896-1.055
					c-6.857-0.116-13.715,0.183-20.536,0.896c-7.58,0.488-15.19,0.196-22.71-0.869c-6.512-3.045-12.878-6.392-19.099-9.977
					l0.711,0.224c4.456,1.438,8.594,3.954,13.076,5.048c4.784,1.095,9.754,1.885,14.696,2.716
					c6.473,1.133,13.089,1.173,19.574,0.117c3.467-0.565,6.973-0.987,10.439-1.699c3.77-0.791,7.566,0.185,11.336-0.673
					c5.272-1.317,11.045-0.264,16.383-0.461c9.227-0.303,18.23-3.689,27.127-5.495c9.872-1.99,19.244-5.575,29.301-6.774
					c5.733-0.685,10.241-2.636,15.672-4.336c4.666-1.438,7.645-4.033,11.52-6.972c7.46-5.575,14.999-11.295,23.725-14.906
					c8.715-3.537,17.763-6.187,27.008-7.907c7.959-1.545,15.396-5.082,21.617-10.28c2.57-2.306,5.008-4.718,7.539-7.051
					c3.235-2.683,6.315-5.548,9.227-8.579c3.164-3.625,6.775-6.933,9.898-10.544c3.468-4.019,6.302-8.54,9.729-12.573
					c5.456-6.443,13.787-9.792,19.164-16.342c1.134-1.317,1.885-3.018,3.058-4.336s2.519-2.069,3.27-3.835
					c0.91-2.148,3.137-7.117,1.925-9.528c-2.412-4.863-15.186,7.644-17.215,9.595c-3.163,2.978-5.76,6.035-9.569,8.211
					c-2.241,1.408-4.58,2.653-6.999,3.729c-4.073,1.661-8.778,1.846-13.075,2.755c-11.942,2.558-24.107,3.954-36.155,5.838
					c-16.317,2.518-32.807,5.944-48.861,9.858c-15.026,3.664-29.907,7.908-44.933,11.453c-7.988,1.924-15.975,3.954-23.989,5.693
					c-9.793,2.188-19.402,5.192-29.235,7.077c-16.199,2.938-32.491,6.523-49.007,6.972c-12.956,0.343-25.794,1.015-38.764,1.015
					c-17.465,0-36.195,1.766-53.33-2.333c-0.219-0.045-0.435-0.107-0.646-0.184c-6.818-7.852-13.144-16.117-18.941-24.751
					c6.266,2.806,12.84,4.867,19.586,6.142c4.903,0.87,10.097,1.99,14.157,4.929c2.54,2.054,5.404,3.67,8.476,4.784
					c11.151,3.585,21.089,3.361,32.253,0.079c4.174-1.239,8.317-2.53,12.43-3.875c3.044-1.028,5.839-2.833,8.883-3.663
					c8.634-2.254,17.557-3.875,26.257-5.865c4.138-0.948,8.475-1.739,12.548-2.979c4.587-1.437,8.884-3.77,13.286-5.574
					c8.436-3.467,16.278-7.038,25.32-8.593c5.681-0.937,12.272-1.648,17.478-4.284c1.687-0.83,4.218-2.003,3.954-4.256
					c-0.303-2.794-3.954-2.043-5.957-1.701c-5.839,1.015-11.784,1.542-17.584,3.084c-10.244,2.665-20.733,4.281-31.304,4.824
					c-15.896,1.054-32.095,2.003-48.031,1.173c-12.654-0.646-25.386-1.779-38.04-1.661c-12.245,0.119-24.147-0.935-35.786-4.784
					c-13.141-4.321-26.52-8.275-38.672-14.944c-14.992-33.125-22.722-69.074-22.671-105.433
					c-0.052-36.436,7.706-72.459,22.75-105.645c-1.701,4.679-3.124,9.463-5.088,13.97c-3.947,8.702-6.06,18.123-6.208,27.676
					c0.237,3.736,0.211,7.484-0.079,11.216c-0.646,4.744-1.015,7.802,0.342,12.586c1.015,3.506,1.318,6.893,2.86,10.28
					c0.496,1.058,1.184,2.014,2.03,2.82c0.754,1.067,1.424,2.19,2.004,3.361c2.069,3.387,5.048,7.907,8.62,9.858
					c2.388,1.186,4.887,2.135,7.46,2.833c3.005,0.857,4.178,1.2,7.197,0.106c2.439-0.979,4.996-1.634,7.605-1.951
					c1.436,0.159,2.85,0.472,4.218,0.936c1.806,0.303,3.585,0.145,5.431,0.527c7.526,1.582,14.868,3.427,22.592,3.348
					c6.063-0.066,12.021,0.949,18.163,0.949c7.381,0,14.684,0.224,21.986-0.712c4.943-0.646,10.254-1.885,15.184-2.188
					c4.93-0.303,10.215,0.145,15.25,0.079c17.518-0.276,35.589-4.494,50.812-13.337c8.12-4.783,16.82-8.504,25.888-11.071
					c11.678-3.36,23.606-6.668,35.588-8.935c11.123-2.153,21.944-5.645,32.227-10.398c4.542-2.148,8.89-4.683,12.996-7.578
					c3.77-2.557,7.909-4.508,11.52-7.183c10.545-7.802,19.771-16.949,28.998-26.253c5.271-5.272,10.624-10.543,16.133-15.591
					c4.549-4.151,9.372-5.997,15.211-7.42c9.307-2.227,14.499-12.691,19.508-20.19c6.327-9.45,11.573-20.296,11.863-31.934
					c0.151-4.796-0.215-9.595-1.095-14.312c-0.313-2.117-0.906-4.182-1.767-6.142c-0.734-1.194-1.353-2.456-1.845-3.769
					c-0.264-1.12-0.303-2.293-0.526-3.308c-0.225-1.015-0.753-2.042-0.977-2.86c-0.527-2.188-1.621-5.206-1.476-7.618v-0.145
					c3.585,2.557,7.091,5.272,10.545,7.987c0.064,1.002,0.039,2.008-0.079,3.005c-0.225,1.212-0.646,2.227-0.87,3.426
					c-0.303,1.779-0.976,2.794-0.937,4.745c-0.079,1.948,0.07,3.899,0.448,5.812c1.239,4.745,4.337,9.147,4.297,14.155
					c-0.143,5.084-1.271,10.092-3.321,14.747c-1.806,4.521-3.756,8.698-5.944,13.034c-1.407,2.864-3.084,5.587-5.009,8.132
					c-1.945,2.321-3.707,4.788-5.272,7.38c-1.131,2.081-2.15,4.219-3.058,6.405c-1.661,3.954-4.337,6.023-7.342,8.962
					c-6.183,5.957-13.906,10.781-20.536,16.501c-5.445,4.519-10.382,9.619-14.724,15.208c-1.884,2.636-11.52,10.135-8.922,14.089
					c1.159,1.74,4.823,1.173,6.471,1.173c3.787-0.037,7.524-0.873,10.967-2.451c9.371-4.257,18.717-9.305,28.589-12.244
					c4.442-1.318,9.227-2.03,13.405-3.954c5.069-2.36,9.979-5.05,14.696-8.052c3.73-2.307,5.945-5.272,8.739-8.593
					c1.582-1.885,3.796-2.939,5.536-4.665c2.03-2.043,3.308-4.415,5.575-6.181c5.546-4.419,10.394-9.649,14.381-15.512
					c3.664-5.272,5.008-11.862,6.59-17.858c0.516-1.541,0.869-3.131,1.054-4.745c0.066-2.029,0-4.138,0-6.181v-0.329
					C508.263,158.611,525.495,202.018,530.463,247.624z"/>
			</g>
			<g opacity="0.5">
				<path fill="#C4B0B8" d="M413.773,80.789c-0.977,5.799-1.504,11.519-2.637,17.317c-1.134,5.799-1.424,12.243-3.77,17.594
					c-3.954,9.225-5.193,19.466-11.441,27.597c-2.636,3.466-4.719,7.196-8.105,10.095c-1.293,0.85-2.65,1.595-4.061,2.228
					c-1.318,0.87-2.715,2.188-3.953,3.123c-6.709,4.903-13.828,9.951-19.771,15.815c-6.367,6.26-12.43,12.402-19.956,17.331
					c-2.267,1.463-4.64,2.517-6.973,3.809c-1.811,1.2-3.7,2.278-5.655,3.229c-2.37,0.732-4.624,1.797-6.695,3.163
					c-1.831,1.353-3.818,2.482-5.919,3.36c-3.611,1.424-7.117,3.124-10.729,4.521c-1.661,0.672-3.4,1.054-5.088,1.647
					c-4.784,1.819-8.29,1.661-14.498,2.148c-1.951-0.856-0.29-0.935,1.318-1.647c0.991-0.451,1.865-1.123,2.557-1.964
					c1.336-1.442,2.796-2.765,4.363-3.953c2.715-1.964,6.3-2.939,9.226-4.705c3.73-2.333,7.421-5.167,11.033-7.684
					c3.057-2.109,5.351-5.43,7.908-8.066c2.715-2.859,5.997-5.416,8.963-8.092c3.467-3.084,6.445-6.589,9.951-9.647
					c3.628-3.085,6.623-6.845,8.818-11.07c0.976-1.806,2.558-3.124,3.573-4.969c1.063-1.668,2.018-3.402,2.859-5.192
					c0.87-2.149,2.004-4.152,2.939-6.221c1.054-2.412,1.015-5.272,1.542-7.789c1.581-7.538,3.098-15.143,4.481-22.721
					c0.975-6.442,1.454-12.95,1.437-19.465c0.224-6.181,1.964-12.204,1.991-18.451c0.218-2.288-0.088-4.596-0.897-6.748
					c-1.317-2.939-2.794-5.496-3.849-8.553c-3.217-9.407-9.187-17.631-17.135-23.604c-1.199-0.87-5.009-3.163-8.778-5.917
					c26.711,6.493,52.192,17.277,75.446,31.933C414.326,66.229,414.838,73.582,413.773,80.789z"/>
			</g>
			<g opacity="0.5">
				<path fill="#C4B0B8" d="M339.565,81.197c-0.554,3.242-2.518,5.693-3.427,8.777c-1.041,3.505-1.821,7.082-2.333,10.702
					c-0.752,5.495-0.264,10.952-0.897,16.487c-1.39,10.437-4.508,20.569-9.226,29.983c-4.6,9.37-12.469,17.053-21.09,22.865
					c-8.883,6.063-18.756,10.689-28.47,15.17c-5.536,2.53-11.375,3.584-17.03,5.733c-4.745,1.766-9.411,3.795-14.13,5.64
					c-4.718,1.845-8.963,5.008-13.629,6.524c-2.899,0.936-5.76,1.911-8.659,2.965c-4.983,1.78-9.504,4.415-14.354,6.485
					c-6.857,2.962-13.969,5.296-21.248,6.971c-7.197,1.687-14.156,0.593-21.392-0.303c-6.084-0.561-12.133-1.44-18.124-2.636
					c-10.953-2.635-22.75-1.884-33.927-1.884c-8.476,0-18.269,0.83-25.769-3.77c-2.148-1.317-4.521-2.714-5.72-4.968
					c-1.477-2.794-1.661-6.326-2.307-9.344c-1.318-6.208-7.223-10.438-11.256-14.985c-5.272-5.957-7.276-13.482-8.331-21.166
					c-1.012-6.618-0.855-13.362,0.461-19.927c12.892-20.65,28.676-39.348,46.872-55.523c-4.284,8.131-7.527,16.763-11.296,25.159
					c-5.681,12.573-10.69,26.279-10.202,40.328c0.185,5.509,0.633,11.677,3.572,16.461c2.267,3.69,5.997,6.365,9.609,8.553
					c5.918,3.545,11.862,7.459,18.229,9.898c7.196,2.754,14.393,5.39,21.55,8.144c4.179,1.582,8.212,3.387,12.733,3.954
					c5.552,0.444,11.128,0.492,16.687,0.145c19.692-0.527,37.882-9.753,56.414-15.327c5.958-1.806,12.139-2.636,18.005-4.587
					c3.528-1.306,6.955-2.87,10.255-4.678c8.238-4.257,17.24-7.46,24.964-12.771c7.708-5.345,14.675-11.687,20.72-18.859
					c4.6-5.509,6.67-11.005,8.924-17.779c4.442-13.337,6.142-26.174,7.341-40.078c0.528-5.904,2.571-11.176,3.955-16.909
					c0.896-3.795,0.369-8.171-2.637-10.925c-6.102-5.377-15.105-8.738-22.908-10.543c-4.745-1.133-9.226-2.636-14.156-2.636
					c-4.93,0-9.609,0-14.433,0c-4.824,0-9.148-1.015-13.787-1.015c-5.457,0-10.545,1.542-15.936,1.964
					c-5.644,0.4-11.263,1.104-16.832,2.109c-6.59,1.16-12.956,3.795-19.362,5.72c-12.777,3.773-24.766,9.823-35.391,17.858
					c-2.636,2.029-5.496,3.65-8.251,5.456c-2.412,1.621-3.282,3.466-4.824,5.878c-3.144,4.78-5.436,10.068-6.775,15.63
					c-0.837,4.024-1.13,8.142-0.87,12.244c-0.066,5.545-0.609,11.074-1.621,16.526c-1.318,7.684-8.7,19.097-0.567,25.238
					c1.131,0.815,2.412,1.398,3.769,1.715c1.358,0.316,2.765,0.361,4.139,0.13c4.153-0.665,8.253-1.621,12.272-2.859
					c11.269-3.163,23.053-6.933,34.731-8.409c3.546-0.448,6.894-0.184,10.4-1.08c2.188-0.607,4.257-1.318,6.472-1.74
					c5.127-0.936,10.254-4.257,14.274-7.604c1.846-1.542,3.362-3.427,5.273-4.969c2.557-2.109,5.641-3.506,8.093-5.772
					c3.506-3.229,6.854-6.735,10.136-10.201c6.735-7.077,11.599-15.934,17.32-23.723c3.624-4.942,7.644-10.319,8.633-16.46
					c0.751-4.745-5.048-7.275-8.594-8.777c-3.848-1.632-8.058-2.219-12.205-1.7c-5.76,1.028-11.033,4.455-16.384,6.748
					c-11.784,5.167-24.938,6.445-35.18,14.721c-3.73,2.979-3.545,5.838-4.705,9.99c-0.802,1.986-1.772,3.899-2.9,5.72
					c-1.542,2.86-1.74,3.572-0.949,6.589c0.791,3.018,1.516,7.038,4.943,8.356c2.965,1.173,7.75,0.158,10.32-1.463
					c1.446-1.142,3.026-2.103,4.706-2.86c1.094-0.422,3.77-1.661,4.824-1.318c1.885,0.712,0.488,1.871-0.303,2.899
					c-0.68,0.896-1.251,1.869-1.701,2.9c-0.202,1.038-0.586,2.033-1.133,2.939c-3.005,3.426-8.989,5.153-13.181,6.589
					c-3.651,1.318-6.393,2.781-10.386,2.821c-5.391,0-3.203-3.954-3.955-7.908c-1.054-5.008-6.827-6.879-7.46-12.085
					c-0.633-5.206,0.975-10.952,3.084-15.512c0.968-1.913,2.092-3.742,3.361-5.47c1.991-3.044,4.93-4.85,7.975-6.893
					c8.963-5.904,20.153-8.738,30.316-12.164c10.162-3.427,21.247-4.02,31.304-7.604c6.854-2.452,14.051-3.242,21.09-4.521
					c6.511-1.16,12.245,1.397,14.947,7.341c2.873,6.3,6.261,13.113,4.257,20.085c-2.715,9.595-5.905,19.123-10.953,27.795
					c-6.222,10.688-13.787,20.783-25.044,26.701c-7.908,4.177-16.502,6.51-24.859,9.634c-6.322,2.521-12.891,4.372-19.6,5.522
					c-10.439,1.581-20.008,7.749-30.21,10.319c-14.045,3.505-28.265,6.268-42.601,8.276c-5.043,0.93-10.199,1.085-15.289,0.462
					c-2.412-0.343-4.64-0.119-6.934-1.134c-1.621-0.711-3.282-1.476-4.89-2.148c-5.575-2.412-10.966-6.405-10.333-13.179
					c0.606-6.366,2.913-12.771,4.112-19.018c0.83-4.151,0.909-8.25,1.924-12.401c0.752-3.163,1.463-6.392,2.333-9.529
					c0.68-2.739,1.788-5.355,3.282-7.749c2.966-4.151,5.273-9.001,8.397-12.955c1.341-1.449,2.549-3.015,3.611-4.679
					c0.719-1.526,1.646-2.946,2.755-4.217c1.199-1.318,2.03-3.044,3.308-4.362c2.509-2.274,5.207-4.329,8.067-6.142
					c6.138-4.516,12.723-8.389,19.653-11.558c6.748-2.939,13.787-4.903,20.72-7.235c6.221-2.148,11.981-5.535,18.163-7.908
					c6.998-2.607,14.281-4.377,21.696-5.271c14.77-1.974,29.65-3.009,44.551-3.097c18.69,0.079,39.397-6.998,57.139,1.924
					c4.526,2.085,8.085,5.818,9.951,10.438c3.137,7.508,4.676,15.587,4.521,23.722C339.723,74.265,340.131,77.85,339.565,81.197z"/>
			</g>
		</g>
		<g opacity="0.63">
			<g opacity="0.63">
				<path fill="#C4B0B8" d="M50.232,161.629c1.318,3.453,3.005,6.471,4.125,9.977c0.689,2.501,1.699,4.902,3.005,7.143
					c1.397,2.267,2.241,4.85,3.572,7.183c1.499,2.573,2.672,5.322,3.493,8.184c0.541,2.109,0.633,4.336,1.213,6.471
					c0.738,2.728,1.476,5.469,2.241,8.198c0.54,1.699,1.326,3.311,2.333,4.784c1.001,1.607,2.162,4.125,3.73,5.271
					c5.048,3.572,12.285,2.056,18.11,1.424c5.272-0.567,10.677-0.607,15.989-1.318c2.791-0.317,5.606-0.383,8.409-0.198
					c2.684,0.132,5.356,0.436,8.001,0.909c2.293,0.448,4.521,0.514,6.827,0.883c3.309,0.528,6.591,1.318,9.912,1.661
					c3.704,0.29,7.514,0.83,11.217,0.909c5.273,0.093,10.716-0.448,16.015,0.119c4.622,0.681,9.277,1.121,13.945,1.318
					c6.077,0,12.14-1.806,17.781-3.862c9.398-3.426,19.086-6.22,28.524-9.673c3.415-1.47,6.696-3.234,9.806-5.272
					c2.887-1.688,5.984-2.794,8.765-4.652c5.262-3.258,11.066-5.544,17.135-6.748c5.932-1.318,11.666-3.466,17.544-4.85
					c3.954-0.922,7.724-2.926,11.652-3.44c-0.738,3.084-7.473,4.205-9.886,5.074c-5.575,1.99-11.625,3.084-17.016,5.509
					c-3.519,1.595-6.024,4.639-8.792,7.223c-2.636,2.372-4.468,4.836-7.407,6.8c-2.886,1.967-6.149,3.313-9.583,3.954
					c-7.579,1.515-14.973,4.23-22.526,5.904c-7.552,1.674-14.934,3.4-21.88,6.59c-1.924,0.896-7.579,3.123-7.816,5.904
					c-0.185,2.227,2.517,1.41,4.086,1.41c3.374,0,7.829-0.804,11.006,0.527c2.271,1.13,4.646,2.039,7.091,2.715
					c5.768,0.982,11.695,0.362,17.135-1.792c7.25-2.821,15.171-4.257,22.79-5.707c5.272-1.015,10.4-2.53,15.659-3.637
					c4.046-0.718,8.13-1.202,12.232-1.45c5.957-0.567,11.928-1.252,17.846-2.24c4.732-0.804,9.912-1.318,14.249-3.387
					c3.598-1.767,7.816-2.874,10.993-5.351c0.843-0.659,5.641-4.797,6.761-3.849c2.333,2.004-10.94,9.555-11.862,10.175
					c-4.277,2.708-8.828,4.956-13.577,6.708c-6.036,2.464-12.231,3.545-18.453,5.113c-7.17,1.78-14.314,3.256-21.445,5.074
					c-7.131,1.819-14.499,2.729-21.63,5.114c-3.586,1.103-7.084,2.474-10.465,4.099c-3.085,1.581-6.367,2.636-9.411,4.283
					c-6.591,3.519-12.746,8.461-19.877,10.754c-6.199,2.145-12.626,3.56-19.152,4.218c-8.554,0.685-17.135-0.514-25.597-1.397
					c-8.671-1.015-17.395-1.508-26.124-1.477c-8.067,0.132-16.121,1.819-24.174,2.201c-5.549,0.264-10.004-1.713-15.105-3.611
					c-5.551-2.154-10.875-4.851-15.896-8.052c-4.491-2.815-9.715-4.236-15.013-4.086c-1.132,0.157-2.248,0.413-3.335,0.765
					c-1.282,0.097-2.558-0.252-3.611-0.989c-4.745-2.227-9.503-5.891-11.863-10.794c-2.299-5.278-3.796-10.871-4.442-16.592
					c-0.25-3.285-0.29-6.582-0.119-9.871c0-4.363-0.791-8.659-0.751-13.048c0-6.932-0.791-14.286,1.397-20.994
					c2.043-6.313,6.248-12.204,10.083-17.529c2.188-3.018,3.954-6.26,6.235-9.225c0.804,1.582-1.107,4.613-1.503,6.247
					C52.341,159.666,51.458,163.975,50.232,161.629z"/>
			</g>
			<g opacity="0.63">
				<path fill="#C4B0B8" d="M375.667,199.454c-2.043,2.636-5.72,6.023-6.287,9.489c-0.567,3.466,3.216,2.873,5.668,2.504
					c5.272-0.83,10.808-1.318,15.817-3.4c2.965-1.226,5.732-2.926,8.699-4.165c2.451-1.041,5.074-1.41,7.525-2.438
					c5.839-2.465,12.127-3.769,17.913-6.432c5.068-2.554,9.677-5.929,13.642-9.989c2.848-2.729,5.59-4.85,7.554-8.369
					c1.436-2.636,3.149-5.14,4.336-7.908c1.456-3.7,2.409-7.578,2.834-11.532c0.283-2.102,0.31-4.23,0.079-6.339
					c-0.659-4.823-5.51-5.271-9.609-4.705c-5.048,0.699-9.107,3.638-12.851,6.853c-3.743,3.216-6.59,6.801-10.677,9.226
					c-4.494,2.741-8.87,5.509-13.181,8.474c-2.329,1.47-4.498,3.18-6.472,5.1c-1.634,1.674-3.216,3.467-4.996,4.995
					c-1.837,1.507-3.79,2.869-5.839,4.073c-1.647,1.028-3.163,2.477-4.851,3.36c-2.213,1.109-4.24,2.554-6.011,4.284
					c-1.274,1.104-2.373,2.397-3.255,3.835C374.323,198.979,374.6,202.195,375.667,199.454z"/>
			</g>
			<g opacity="0.63">
				<path fill="#C4B0B8" d="M434.19,129.525c0.869-2.715,1.449-3.73,3.953-5.035c1.557-0.817,2.637-1.028,3.758,0.699
					c2.029,3.334,0.565,7.393-0.752,10.609c-0.949,2.346-4.732,4.705-6.458,1.753c-1.16-2.003-1.121-7.907,1.646-8.738
					L434.19,129.525z"/>
			</g>
			<g opacity="0.63">
				<path fill="#C4B0B8" d="M220.094,228.712c1.318-2.439,1.621-2.702,3.954-3.585c1.477-0.736,3.068-1.218,4.706-1.424
					c2.016-0.197,4.218-1.317,6.261-0.553c3.137,1.12,2.544,3.875,0.421,5.825c-0.844,0.912-1.933,1.562-3.137,1.872
					c-1.641,0.43-3.326,0.669-5.021,0.711c-2.874,0-5.273,0.119-7.777-1.568c-0.065-0.262-0.035-0.539,0.086-0.781
					c0.121-0.241,0.324-0.432,0.573-0.537L220.094,228.712z"/>
			</g>
			<g opacity="0.63">
				<path fill="#C4B0B8" d="M100.188,409.201c8.189,2.852,16.794,4.326,25.465,4.361c10.26,0.293,20.528-0.016,30.751-0.923
					c6.801-0.645,13.55-0.474,20.325-1.436c3.282-0.476,6.406-0.33,9.688-0.488c1.885-0.079,3.862-1.199,5.707-0.619
					c7.131,2.175-5.536,6.273-6.973,6.985c-5.153,2.556-10.913,3.439-16.383,5.034c-2.109,0.605-4.258,1.213-6.327,1.924
					c-1.903,0.849-3.857,1.576-5.852,2.175c-8.397,1.832-16.793,2.636-25.163,4.441c-3.151,0.826-6.435,1.018-9.661,0.566
					c-3.348-0.619-6.472-2.636-9.451-4.125c-3.726-1.646-7.306-3.604-10.703-5.852c-1.744-1.17-3.38-2.493-4.89-3.953
					c-0.644-0.86-1.094-1.849-1.318-2.9c-0.844-2.16-0.804-3.03,1.054-4.612c0.674-0.609,1.495-1.033,2.382-1.232
					c0.887-0.198,1.81-0.164,2.68,0.1C101.532,408.858,101.572,409.056,100.188,409.201z"/>
			</g>
			<g opacity="0.63">
				<path fill="#C4B0B8" d="M317.382,493.455c-4.26,1.191-8.307,3.041-11.995,5.482c-1.608,1.134-3.585,3.07-1.212,4.521
					c3.203,1.951,8.409,0.909,11.862,0.606c5.958-0.54,11.863-1.635,17.768-2.412c4.033-0.54,7.988-0.962,11.968-1.767
					c5.179-1.148,10.281-2.619,15.276-4.4c3.706-1.188,7.248-2.835,10.546-4.903c3.514-1.967,6.891-4.168,10.108-6.59
					c4.099-3.439,9.504-6.128,11.085-11.624c1.318-4.573-8.566-2.925-10.544-2.635c-7.341,1.048-14.552,2.845-21.524,5.362
					c-3.019,1.068-6.248,1.886-9.227,3.178c-3.954,1.752-7.737,3.835-11.771,5.39c-1.911,0.751-3.585,1.95-5.523,2.636
					c-1.7,0.632-3.413,1.199-5.101,1.884c-1.687,0.687-3.769,1.621-5.694,2.241C319.056,491.913,314.68,493.112,317.382,493.455z"/>
			</g>
			<g opacity="0.63">
				<path fill="#C4B0B8" d="M396.375,460.151c0.751-2.464,2.332-3.599,4.165-5.377c1.423-1.385,2.781-2.873,4.85-3.163
					c1.529-0.225,3.954,1.542,3.282,3.295c-0.572,0.965-1.267,1.851-2.069,2.636c-0.676,1.087-1.607,1.992-2.715,2.636
					c-2.211,1.014-4.718,1.172-7.039,0.448L396.375,460.151z"/>
			</g>
			<g opacity="0.63">
				<path fill="#C4B0B8" d="M422.064,400.212c-1.732,1.041-3.555,1.923-5.444,2.636c-1.436,0.33-2.887,0.581-4.349,0.751
					c-4.363,0.687-8.871,0.989-13.274,1.425c-5.628,0.553-11.216,1.317-16.845,1.778c-9.938,0.751-20.391,1.608-29.895,4.665
					c-7.997,2.552-15.737,5.849-23.119,9.846c-6.546,3.383-12.771,7.353-18.598,11.86c-1.896,1.607-3.688,3.332-5.365,5.167
					c-1.221,1.139-2.241,2.476-3.018,3.953c-1.041,2.346-0.092,3.954,1.964,5.272c3.203,2.043,7.091,2.227,10.755,2.728
					c5.444,0.751,10.861,1.438,16.279,2.28c5.604,0.919,11.253,1.534,16.924,1.845c5.813,0.264,11.863,0.145,17.398-1.963
					c3.926-1.405,7.734-3.12,11.389-5.127c3.559-2.043,7.104-4.06,10.479-6.393c2.506-1.477,4.887-3.155,7.117-5.021
					c0.936-0.883,1.885-1.648,2.86-2.465c1.516-1.318,2.637-2.912,4.151-4.191c3.435-2.873,6.529-6.127,9.228-9.7
					c2.083-2.74,4.613-5.073,6.67-7.814c1.212-1.634,2.478-2.491,3.202-4.494C421.348,404.971,421.848,402.609,422.064,400.212z"/>
			</g>
			<g opacity="0.63">
				<path fill="#C4B0B8" d="M433.953,392.068c0.92-1.688,2.165-3.176,3.664-4.376c1.2-1.134,2.782-3.123,4.441-3.651
					c0.411-0.169,0.86-0.223,1.3-0.155c0.438,0.067,0.851,0.253,1.191,0.538c0.294,0.343,0.513,0.745,0.64,1.179
					c0.127,0.435,0.16,0.891,0.1,1.339c-0.343,2.003-2.294,3.558-3.955,4.428c-2.069,1.068-3.282,0.527-5.457,0.224L433.953,392.068
					z"/>
			</g>
			<g opacity="0.63">
				<path fill="#C4B0B8" d="M509.611,321.243c-1.093,0.841-2.082,1.805-2.953,2.873c-1.318,1.911-2.425,3.953-3.954,5.706
					c-1.542,1.947-2.914,4.023-4.099,6.208c-1.557,2.715-3.389,5.271-4.839,7.999c-3.137,5.957-5.628,12.23-8.435,18.346
					c-1.411,3.057-2.637,6.194-3.955,9.225c-1.569,3.25-2.699,6.693-3.361,10.24c-0.407,2.558-1.066,6.946,2.373,7.407
					c4.271,0.58,8.567-3.097,11.679-5.548c8.136-6.542,15.113-14.406,20.641-23.262c5.536-8.752,10.901-19.269,9.517-29.93
					c-0.507-4.827-0.4-9.698,0.316-14.498c0.659-5.1,2.228-10.2,2.32-15.366c0-3.664,0.672-7.249-0.133-10.86
					c-0.109-1.18-0.666-2.274-1.555-3.058c-0.949-0.553-1.607,0-2.465,0.646c-2.565,1.862-4.63,4.33-6.011,7.183
					c-1.688,3.505-1.779,7.288-3.202,10.886c-0.396,1.279-0.858,2.537-1.384,3.769c-0.528,0.988-1.175,1.938-1.714,2.939
					c-0.812,1.808-1.404,3.706-1.767,5.653c-0.316,1.199-0.501,2.319-0.831,3.52c-0.263,0.935-0.672,1.937-0.855,2.886
					C504.76,325.157,505.09,325.921,509.611,321.243z"/>
			</g>
			<g opacity="0.63">
				<path fill="#C4B0B8" d="M470.121,384.516c-0.856,0.844-6.037,5.852-4.033,7.131c0.554,0.355,2.083,0,2.636-0.252
					c1.045-0.495,2.002-1.158,2.834-1.963c0.534-0.384,0.949-0.909,1.199-1.518c0.249-0.608,0.322-1.274,0.211-1.922
					c0-2.254-1.423-2.188-3.32-1.424L470.121,384.516z"/>
			</g>
			<g opacity="0.63">
				<path fill="#C4B0B8" d="M482.485,396.403c1.106-1.477,1.423-2.108,2.979-2.714c1.135-0.664,2.337-1.207,3.585-1.621
					c1.647-0.265,2.412,0.354,2.544,2.016c0.237,2.833-3.256,6.497-4.825,8.514c-1.898,2.615-4.112,4.987-6.59,7.064
					c-3.571,2.794-6.169-1.714-4.837-5.062c0.804-2.029,1.133-4.428,2.399-6.233c1.977-2.833,4.929-2.82,8.093-3.4L482.485,396.403z
					"/>
			</g>
			<g opacity="0.63">
				<path fill="#C4B0B8" d="M206.531,88.129c-1.508,0.817-2.825,1.945-3.865,3.308c-1.041,1.363-1.781,2.93-2.172,4.6
					c-0.501,1.621-1.134,5.074,0.224,6.471c2.32,2.398,8.541-0.224,10.795-1.094c4.389-1.688,8.858-4.191,13.431-5.272
					c8.634-1.99,18.111-2.794,25.532-8.105c4.188-3.146,7.804-6.988,10.689-11.36c1.872-2.729,4.337-4.942,4.587-8.461
					c0.488-7.117-9.451-7.591-14.13-6.497c-9.995,2.205-19.719,5.497-28.998,9.818c-5.456,2.636-12.231,5.983-16.08,10.886
					c-0.974,1.367-1.754,2.861-2.32,4.441C203.749,87.984,202.695,91.213,206.531,88.129z"/>
			</g>
			<g opacity="0.63">
				<path fill="#C4B0B8" d="M225.089,108.109c-1.173-2.636-1.753-2.86,0.198-4.455c1.646-1.264,3.412-2.363,5.272-3.281
					c2.217-1.104,4.668-1.656,7.144-1.608c4.983,0.593,2.716,6.208,1.174,8.909c-0.963,1.7-1.674,3.268-3.283,4.178
					c-1.898,1.08-3.176,1.634-5.272,0.935c-1.474-0.563-2.819-1.42-3.954-2.517c-0.844-0.751-2.808-2.122-2.636-3.466l0.619-0.119
					L225.089,108.109z"/>
			</g>
			<g opacity="0.63">
				<path fill="#C4B0B8" d="M190.108,169.484c0.118-2.359-0.079-2.886,1.397-4.375c2.188-2.241,5.404-3.954,7.988-5.615
					c5.892-3.739,12.246-6.699,18.901-8.803c5.915-1.899,11.977-3.305,18.123-4.204c4.587-0.712,8.924-2.228,13.537-2.873
					c7.105-0.976,15.817-4.415,21.498,2.319c4.561,5.456-3.875,12.678-7.908,15.644c-3.422,2.468-7.324,4.187-11.455,5.047
					c-4.916,1.239-9.767,2.715-14.683,3.954c-9.134,2.267-17.623,6.59-26.362,10.03c-6.023,2.345-10.32,2.121-15.738-1.463
					C192.467,177.128,187.472,171.975,190.108,169.484z"/>
			</g>
			<g opacity="0.63">
				<path fill="#C4B0B8" d="M272.896,128.813c-1.186,2.188-4.138,6.194-0.329,7.565c2.162,0.778,3.717-0.962,5.272-2.201
					c1.556-1.239,3.862-2.636,5.048-4.652c0.34-0.425,0.571-0.927,0.672-1.462s0.07-1.087-0.091-1.607
					c-0.162-0.52-0.448-0.993-0.834-1.377c-0.386-0.384-0.86-0.667-1.381-0.826c-4.468-1.99-6.59,2.293-9.134,5.272L272.896,128.813
					z"/>
			</g>
			<g opacity="0.63">
				<path fill="#C4B0B8" d="M342.848,85.282c-3.955,4.112-6.341,8.896-5.695,14.735c0.646,5.838,4.455,6.932,9.226,4.547
					c1.438-0.588,2.823-1.298,4.139-2.122c1.318-1.028,2.135-2.952,3.137-4.296c2.273-2.838,3.481-6.381,3.414-10.016
					c0-3.598,0.423-7.446-0.539-10.926c-0.528-1.924-1.318-4.507-3.006-5.693c-2.004-1.318-3.532,0.435-4.996,1.621
					c-1.416,0.884-2.637,2.051-3.584,3.426c-1.586,2.985-2.795,6.154-3.6,9.437L342.848,85.282z"/>
			</g>
			<g opacity="0.63">
				<path fill="#C4B0B8" d="M262.194,208.02c0.171-2.715,0.092-2.899,2.056-4.402c1.437-1.198,2.947-2.307,4.521-3.321
					c3.028-1.644,6.352-2.67,9.78-3.018c2.708-0.344,5.458,0.114,7.908,1.318c1.543,0.87,1.832,2.636,1.45,4.468
					c-0.54,2.57-3.097,4.204-5.008,5.72c-1.912,1.515-4.548,3.545-6.96,4.125c-2.905,0.873-5.984,0.995-8.95,0.356
					c-1.792-0.475-5.575-1.226-5.536-3.77L262.194,208.02z"/>
			</g>
			<g opacity="0.63">
				<path fill="#C4B0B8" d="M297.162,183.046c1.753-2.478,2.861-4.679,5.536-6.3c1.16-0.712,4.073-2.886,5.563-2.886
					c0.599,0.114,1.152,0.402,1.588,0.829c0.436,0.427,0.736,0.973,0.863,1.569c0.159,1.252-1.067,2.926-1.74,3.954
					c-1.502,2.256-3.607,4.046-6.076,5.166c-1.104,0.575-2.383,0.716-3.585,0.396c-1.318-0.369-1.793-1.595-2.86-1.99
					L297.162,183.046z"/>
			</g>
			<g opacity="0.63">
				<path fill="#C4B0B8" d="M157.999,77.428c-3.506,3.479-6.366,7.156-7.5,12.138c-0.269,0.718-0.317,1.5-0.136,2.245
					c0.181,0.745,0.582,1.419,1.151,1.933c1.859,1.647,4.231,0.751,6.406,0c6.089-2.069,11.863-5.707,17.135-9.226
					c4.851-3.189,11.349-4.085,15.066-8.725c2.016-2.504,4.125-5.271,2.188-8.593c-1.687-2.833-5.971-4.046-8.99-4.099
					c-4.395,0.056-8.705,1.216-12.535,3.374C165.847,69.254,161.503,72.975,157.999,77.428z"/>
			</g>
			<g opacity="0.63">
				<path fill="#C4B0B8" d="M138.017,62.443c6.749-1.318,12.574-2.702,18.453-6.3c1.186-0.711,2.373-1.054,3.506-1.7
					c1.134-0.646,1.318-1.397,2.162-2.188c-0.58-2.741-7.975-1.094-9.675-0.369c-2.267,0.949-4.56,2.28-6.762,3.387
					c-1.191,0.529-2.337,1.155-3.427,1.872c-2.201,1.634-3.519,4.468-4.995,6.721L138.017,62.443z"/>
			</g>
		</g>
		<g opacity="0.47">
			<g opacity="0.47">
				<path fill="#C4B0B8" d="M347.842,212.831c-1.939,1.219-3.945,2.328-6.01,3.321c-3.388,1.384-6.472,3.334-9.833,4.784
					c-3.954,1.713-8.225,2.846-12.298,4.243c-5.758,1.868-11.295,4.356-16.515,7.42c-5.273,3.216-10.308,7.908-13.01,13.496
					c-1.542,3.229-2.175,7.591-0.29,10.846c1.1,2.062,2.789,3.75,4.851,4.85c3.466,1.555,6.84,0.567,10.32-0.25
					c4.403-0.96,8.668-2.47,12.693-4.494c2.149-1.12,4.192-2.425,6.34-3.559c2.149-1.133,4.745-2.056,7.105-3.018
					c1.832-0.751,3.704-1.41,5.589-2.003c2.314-0.77,4.48-1.929,6.405-3.426c3.834-2.752,7.037-6.287,9.397-10.373
					c2.94-5.271,4.47-10.648,3.454-16.553C355.25,213.542,351.889,211.302,347.842,212.831z"/>
			</g>
			<g opacity="0.47">
				<path fill="#C4B0B8" d="M283.125,245.607c-1.318-1.753-2.162-1.581-4.271-1.463c-1.63,0.176-3.246,0.462-4.837,0.857
					c-7.909,1.661-15.975,2.504-23.831,4.52c-4.352,0.957-8.567,2.453-12.548,4.455c-3.954,2.135-8.08,4.046-11.968,6.379
					c-8.865,5.509-18.591,9.491-28.774,11.782c-6.367,1.318-12.733,2.636-19.126,3.822c-3.848,0.711-7.75,1.318-11.586,2.109
					c-3.835,0.79-7.631,1.91-11.48,2.767c-6.89,1.407-13.669,3.31-20.285,5.694c-6.736,2.543-13.603,4.902-18.875,10.003
					c-2.702,2.635-6.169,6.444-6.156,10.451c0.142,2.825,1.053,5.561,2.636,7.906c5.273,8.726,15.409,13.904,24.214,18.372
					c12.205,6.194,26.717,6.998,40.069,8.54c17.434,1.881,35.055,0.991,52.21-2.636c7.71-1.568,15.474-3.097,23.211-4.547
					c9.332-1.752,18.77-2.991,28.075-4.942c7.658-1.621,15.369-3.413,22.895-5.601c4.139-1.143,8.195-2.564,12.14-4.257
					c3.429-1.648,6.76-3.492,9.978-5.522c2.746-1.513,5.388-3.208,7.908-5.074c2.086-1.81,3.953-3.857,5.563-6.102
					c2.741-3.532,4.507-7.433,6.695-11.268c1.438-2.703,3.021-5.325,4.744-7.855c1.78-2.438,3.877-4.731,5.813-7.051
					c4.06-4.889,9.042-9.107,12.838-14.181c2.215-2.952,4.376-6.668,4.681-10.398c0.209-2.543,0.224-5.153-2.439-6.313
					c-2.604-1.007-5.428-1.307-8.186-0.87c-2.758,0.539-5.466,1.31-8.093,2.307c-4.674,1.345-9.207,3.136-13.537,5.351
					c-10.861,5.825-21.551,13.06-33.782,15.656c-5.049,1.081-10.097,1.635-14.947-0.369c-3.639-1.392-7.103-3.206-10.321-5.403
					c-4.218-3.044-2.939-6.656-1.094-10.82C281.451,250.062,283.744,246.068,283.125,245.607z"/>
			</g>
			<g opacity="0.47">
				<path fill="#C4B0B8" d="M517.69,188.989c-0.032,4.444-0.39,8.88-1.067,13.271c-0.277,1.964-0.607,3.954-0.91,5.878
					c-0.408,2.636-1.66,4.955-2.28,7.551c-1.106,4.653-3.32,8.685-5.271,12.995s-3.27,9.028-5.273,13.456
					c-5.456,12.547-8.712,25.844-14.037,38.431c-2.636,6.233-5.034,12.678-7.908,18.78c-2.637,5.496-5.761,10.754-8.488,16.184
					c-1.028,2.03-3.836,5.771-1.7,7.907c1.7,1.687,4.797,0.132,6.59-0.83c7.17-3.835,10.215-12.915,14.631-19.281
					c2.24-3.216,5.682-5.641,8.015-8.83c3.044-4.165,6.655-9.133,8.659-13.838c4.166-9.74,6.723-19.835,10.334-29.772
					c2.991-8.211,3.439-16.171,3.439-24.79c0-3.611,0.409-7.235-0.685-10.688C520.735,212.158,519.944,206.768,517.69,188.989z"/>
			</g>
			<g opacity="0.47">
				<path fill="#C4B0B8" d="M504.378,201.352c-3.031,2.912-9.226,10.068-6.274,14.826c1.621,2.636,6.341,1.476,8.002-0.764
					c1.423-1.924,1.119-5.14,1.119-7.394c0-1.239,0.409-3.097,0-4.217c-0.407-1.12-1.582-1.318-1.832-2.451H504.378z"/>
			</g>
			<g opacity="0.47">
				<path fill="#C4B0B8" d="M446.33,339.351c-3.876,2.297-7.597,4.846-11.138,7.631c-3.392,2.283-6.978,4.265-10.717,5.918
					c-9.43,4.483-19.444,7.616-29.749,9.304c-13.181,2.307-26.73,4.06-39.543,8.29c-9.727,3.203-19.362,6.59-28.998,10.029
					c-9.094,3.216-19.428,5.522-27.521,10.966c-1.99,1.316-4.666,3.413-3.954,6.102c1.133,4.296,9.951,4.467,13.088,4.6
					c9.464,0.395,19.06,0,28.537,0c4.547,0,9.107-0.25,13.643,0.197c5.645,0.561,11.332,0.561,16.977,0
					c7.104-0.633,14.499-0.487,21.379-2.636c13.181-4.231,26.269-9.226,39.174-14.273c11.572-4.572,28.365-14.022,27.351-28.479
					C454.423,350.738,450.548,341.987,446.33,339.351z"/>
			</g>
			<g opacity="0.47">
				<path fill="#C4B0B8" d="M465.363,350.738c-1.926-3.954-2.439-4.995-0.356-8.646c1.318-2.318,5.272-5.732,8.226-5.746
					c5.891,0,6.075,6.748,4.758,10.847c-1.16,3.585-2.637,9.041-6.92,9.226c-0.673,0.102-1.36,0.05-2.012-0.15
					c-0.649-0.2-1.246-0.546-1.746-1.01c-1.396-1.027-3.32-4.31-4.811-4.56L465.363,350.738z"/>
			</g>
			<g opacity="0.47">
				<path fill="#C4B0B8" d="M50.522,362.151c-1.067,4.48-1.713,8.565,0.475,12.876c3.019,5.996,9.688,10.016,15.817,11.953
					c3.857,1.125,7.846,1.74,11.863,1.832c4.495,0.211,8.976,0.909,13.471,0.988c6.729,0.083,13.443,0.615,20.101,1.594
					c3.704,0.541,7.289,1.621,10.98,2.069c2.871,0.309,5.722,0.774,8.541,1.397c6.011,1.396,11.995,1.437,18.058,2.279
					c6.43,0.756,12.935,0.604,19.323-0.447c5.549-0.83,11.428-1.568,14.064-6.933c2.069-4.217,0.553-6.483-3.137-9.356
					c-3.282-2.558-8.792-3.664-12.641-4.93c-5.891-1.95-11.744-3.756-17.794-5.271c-8.435-2.043-16.555-5.047-24.898-7.512
					c-17.135-5.049-33.572-12.085-51.498-13.706c-7.421-0.687-16.199-0.766-23.053,2.636c-2.207,1.193-3.889,3.167-4.719,5.535
					C43.998,360.727,45.777,362.876,50.522,362.151z"/>
			</g>
			<g opacity="0.47">
				<path fill="#C4B0B8" d="M49.521,330.758c0.989,3.137,0.791,4.112,3.69,4.995c1.864,0.771,3.916,0.967,5.892,0.566
					c2.452-0.711,5.378-2.518,5.694-5.087c0.356-2.86-2.175-4.981-4.508-6.233c-4.679-2.504-8.449-2.307-10.769,2.899V330.758z"/>
			</g>
			<g opacity="0.47">
				<path fill="#C4B0B8" d="M250.304,120.484c-0.115-1.705,0.236-3.408,1.015-4.929c0.935-2.126,2.027-4.179,3.269-6.141
					c0.91-1.318,1.489-2.781,2.346-4.152c1.213-1.937,2.452-3.703,3.493-5.746c1.495-2.548,3.263-4.925,5.273-7.09
					c1.282-1.461,2.396-3.062,3.321-4.771c0.751-1.423,1.885-2.531,2.636-3.954c1.002-1.74,1.674-3.783,2.636-5.602
					c0.944-1.966,2.009-3.872,3.19-5.707c0.76-1.398,1.739-2.667,2.9-3.756c0.868-0.877,1.817-1.672,2.834-2.373
					c2.293-1.001,3.466-0.21,4.653,1.911c1.838,3.738,2.682,7.887,2.451,12.046c-0.18,4.313-0.974,8.577-2.359,12.665
					c-1.124,2.842-2.51,5.573-4.139,8.158c-2.807,4.942-6.168,9.515-9.45,14.154c-1.938,2.742-5.207,5.008-7.909,7.077
					c-1.654,1.301-3.529,2.292-5.536,2.926c-1.133,0.369-2.715,1.147-3.954,0.896c-1.151-0.356-2.275-0.796-3.361-1.318
					C250.871,123.766,249.553,121.407,250.304,120.484z"/>
			</g>
			<g opacity="0.47">
				<path fill="#C4B0B8" d="M239.839,124.293c-1.648,0.83-3.375,1.41-4.073,3.216c-0.198,0.487-0.514,1.528-0.172,2.042
					c1.318,1.911,5.853-0.645,6.881-1.673c1.028-1.028,2.162-2.913,1.173-4.271c-0.228-0.274-0.509-0.5-0.827-0.663
					c-0.318-0.163-0.665-0.26-1.021-0.285c-0.356-0.024-0.714,0.024-1.051,0.141c-0.337,0.118-0.647,0.303-0.91,0.544V124.293z"/>
			</g>
			<g opacity="0.47">
				<path fill="#C4B0B8" d="M324.051,56.262c-1.107,0.482-2.12,1.155-2.992,1.99c-0.408,0.757-0.718,1.563-0.923,2.398
					c-1.118,3.012-1.861,6.15-2.214,9.344c-0.316,3.137-0.409,8.685,3.256,9.977c7.117,2.504,17.517-2.636,18.097-10.609
					c0.329-4.534-2.135-8.751-4.785-12.204c-1.295-1.837-2.819-3.502-4.534-4.956c-0.596-0.471-1.278-0.819-2.009-1.024
					c-0.731-0.206-1.495-0.265-2.248-0.175C323.234,51.504,321.362,53.956,324.051,56.262z"/>
			</g>
			<g opacity="0.47">
				<path fill="#C4B0B8" d="M322.614,95.272c0-1.555,0-1.938,1.028-2.952c0.653-0.726,1.441-1.316,2.32-1.74
					c1.687-0.554,2.781,0.698,2.86,2.293c0.066,1.212,0.119,3.677-0.975,4.521c-1.094,0.844-5.523,0.079-5.272-1.647L322.614,95.272
					z"/>
			</g>
			<g opacity="0.47">
				<path fill="#C4B0B8" d="M374.48,62.917c-0.725,2.965-0.619,6.023-1.186,9.054c-0.906,4.967-1.452,9.993-1.635,15.038
					c-0.092,2.636,0,5.18-0.131,7.776c-0.35,3.176-0.455,6.375-0.317,9.568c0.422,4.125,0.884,8.461,3.625,11.755
					c1.951,2.346,4.679,1.49,7.249,0.541c2.049-0.998,3.979-2.228,5.747-3.664c1.44-0.943,2.799-2.005,4.06-3.176
					c5.682-5.272,10.795-11.084,13.075-18.715c1.648-5.548,3.27-11.861,1.912-17.581c-0.73-3.659-2.377-7.074-4.785-9.924
					c-1.896-2.072-4.169-3.767-6.696-4.995c-2.096-1.121-4.362-1.213-6.59-1.74c-1.869-0.418-3.779-0.622-5.693-0.606
					c-1.771,0.008-3.536,0.185-5.273,0.527C374.111,57.474,373.189,62.43,374.48,62.917z"/>
			</g>
			<g opacity="0.47">
				<path fill="#C4B0B8" d="M380.188,124.767c0.66-2.069,2.149-4.204,4.588-3.071c0.867,0.393,1.547,1.109,1.894,1.995
					c0.347,0.886,0.334,1.873-0.036,2.75c-0.34,0.646-0.893,1.156-1.564,1.444c-0.672,0.288-1.422,0.337-2.125,0.137
					c-0.922-0.384-1.719-1.013-2.308-1.818c-0.856-1.147-0.157-2.043,0-3.348L380.188,124.767z"/>
			</g>
			<g opacity="0.47">
				<path fill="#C4B0B8" d="M386.857,175.665c-1.883,0.178-3.741,0.571-5.535,1.173c-0.17,0.422-0.405,0.814-0.699,1.16
					c-0.382,0.501-1.516,1.16-1.318,1.885c2.399,1.014,5.826-0.607,7.909-1.727c1.097-0.533,2.12-1.207,3.044-2.003
					c0.596-0.523,1.137-1.101,1.622-1.727c0.765-1.383,0-2.108-1.411-2.095c-1.41,0.013-4.863,1.107-4.994,2.86L386.857,175.665z"/>
			</g>
			<g opacity="0.47">
				<path fill="#C4B0B8" d="M465.837,167.586c0.05,1.617-0.318,3.219-1.067,4.653c-0.672,1.7-1.62,3.716-1.317,5.614
					c0.659,4.494,6.867,3.598,10.03,3.189c3.717-0.487,7.25-1.318,10.03-3.953c2.046-1.697,3.355-4.12,3.651-6.761
					c0.659-4.771,1.766-12.837-5.272-12.745c-2.928,0.197-5.736,1.231-8.093,2.979c-1.62,1.143-3.048,2.535-4.23,4.125
					C467.933,166.598,466.127,168.193,465.837,167.586z"/>
			</g>
			<g opacity="0.47">
				<path fill="#C4B0B8" d="M416.356,426.333c2.057-6.668,5.272-12.335,11.376-16.118c1.423-0.883,2.636-2.029,4.336-1.146
					c1.396,0.737,1.134,2.358,0.698,3.743c-0.839,2.142-2.038,4.125-3.546,5.863c-1.429,1.613-2.946,3.145-4.547,4.587
					c-0.905,0.989-2.049,1.729-3.322,2.148C419.65,425.47,417.967,425.781,416.356,426.333z"/>
			</g>
			<g opacity="0.47">
				<path fill="#C4B0B8" d="M174.172,433.99c0.119-2.557,1.595-3.756,3.611-5.443c4.498-3.486,9.62-6.081,15.092-7.643
					c4.667-1.463,10.229-2.491,15.066-1.16c2.162,0.605,4.864,1.646,5.787,3.861c1.581,3.821-2.531,9.449-5.576,11.558
					c-3.836,2.636-9.385,3.453-13.774,4.784c-4.095,1.223-8.398,1.586-12.64,1.067c-1.527-0.088-3.037-0.366-4.495-0.83
					c-1.383-0.342-2.747-0.755-4.086-1.238c-1.186-0.634-2.728-1.621-2.834-3.031c-0.034-0.847,0.166-1.687,0.58-2.425
					C171.654,432.277,173.236,432.119,174.172,433.99z"/>
			</g>
		</g>
		<g>
			<g>
				<path fill="#C4B0FF" d="M458.943,150.401c-1.556,1.041-4.509,2.517-3.954,4.863c0.348,1.045,0.753,2.07,1.213,3.071
					c0.293,0.925,0.482,1.88,0.566,2.846c0.169,1.589,0.775,3.099,1.754,4.363c0.711,0.777,1.463,0,1.949-0.751
					c0.605-0.76,0.988-1.672,1.108-2.636c0.018-1.242,0.164-2.478,0.434-3.69c0.133-0.475,0.488-0.897,0.595-1.318
					c0.11-0.671,0.138-1.353,0.079-2.03c-0.044-1.082-0.429-2.122-1.102-2.97C460.913,151.3,459.987,150.688,458.943,150.401z"/>
			</g>
			<g>
				<path fill="#C4B0FF" d="M434.084,284.209c-0.276,0.145-0.606,0.25-0.751,0.54c-0.066,0.16-0.106,0.329-0.119,0.501
					c-0.064,0.751,0.977,1.081,1.49,1.226c0.747,0.239,1.536,0.32,2.317,0.239c0.779-0.082,1.534-0.325,2.217-0.714
					c0.504-0.306,0.938-0.714,1.276-1.197c0.338-0.483,0.572-1.031,0.688-1.61c0.001-0.722-0.201-1.43-0.583-2.043
					c-0.382-0.613-0.929-1.106-1.579-1.423c-0.543-0.397-1.183-0.641-1.853-0.708c-0.67-0.068-1.345,0.045-1.956,0.326
					c-0.448,0.265-0.801,0.667-1.003,1.147c-0.145,0.395-0.117,0.817-0.236,1.212s-0.515,0.923-0.436,1.502
					C433.612,283.592,433.798,283.946,434.084,284.209z"/>
			</g>
			<g>
				<path fill="#C4B0FF" d="M442.56,286.753c-0.008-0.157,0.025-0.312,0.098-0.451c0.071-0.139,0.179-0.256,0.311-0.34
					c0.108-0.124,0.257-0.205,0.419-0.227c0.163-0.022,0.328,0.017,0.464,0.108c0.122,0.09,0.225,0.203,0.303,0.332
					c0.078,0.13,0.129,0.273,0.15,0.423c0.022,0.149,0.016,0.302-0.021,0.448s-0.104,0.284-0.193,0.405
					c-0.14,0.143-0.313,0.249-0.504,0.309c-0.191,0.06-0.394,0.071-0.59,0.034c-0.209-0.06-0.392-0.189-0.515-0.367
					c-0.125-0.177-0.186-0.392-0.172-0.608L442.56,286.753z"/>
			</g>
			<g>
				<path fill="#C4B0FF" d="M463.399,255.109c-0.511,0.044-0.983,0.285-1.318,0.673c-0.121,0.093-0.216,0.216-0.276,0.357
					c-0.06,0.141-0.083,0.294-0.066,0.447c0.145,0.965,0.643,1.843,1.396,2.464c0.244,0.187,0.528,0.315,0.83,0.374
					c0.302,0.06,0.613,0.049,0.91-0.031c0.537-0.239,1.031-0.564,1.463-0.962c0.412-0.295,0.803-0.617,1.173-0.962
					c0.372-0.243,0.666-0.586,0.849-0.99c0.182-0.404,0.244-0.852,0.18-1.29c-0.097-0.434-0.308-0.834-0.612-1.158
					c-0.303-0.325-0.688-0.563-1.114-0.688c-0.579-0.105-1.177-0.051-1.727,0.159C464.401,253.686,463.913,253.686,463.399,255.109z
					"/>
			</g>
			<g>
				<path fill="#C4B0FF" d="M459.51,257.89c0.419,0.155,0.798,0.402,1.107,0.725c-0.079,0.211,0.132,0.395,0,0.62
					c-0.132,0.224-0.726,0.079-0.962,0c-0.325-0.119-0.59-0.36-0.738-0.673c0-0.118-0.29-0.632,0-0.579L459.51,257.89z"/>
			</g>
			<g>
				<path fill="#C4B0FF" d="M413.219,275.023c-0.422,0.475-0.896,0.989-0.593,1.727c0.173,0.276,0.43,0.49,0.734,0.609
					c0.304,0.119,0.638,0.136,0.952,0.05c0.33,0,0.699-0.132,0.845-0.488c0.145-0.356,0.196-0.791,0.315-1.16
					c0.277-0.896,1.318-1.318,0.791-2.385c-0.117-0.238-0.288-0.446-0.498-0.609c-0.21-0.162-0.455-0.274-0.715-0.327
					c-0.856,0-1.528,0.791-2.029,1.489L413.219,275.023z"/>
			</g>
			<g>
				<path fill="#C4B0FF" d="M287.646,364.483c0.263-0.566,0.579-1.607,1.555-1.964c0.589-0.205,1.23-0.205,1.819,0
					c1.463,0.237,2.913,0.698,1.951,2.148c-0.684,0.787-1.613,1.321-2.637,1.516c-0.87,0.146-2.478-0.132-2.399-0.869
					L287.646,364.483z"/>
			</g>
			<g>
				<path fill="#C4B0FF" d="M376.089,57.185c-0.33,1.318-0.778,2.965,0.724,3.954c1.029,0.633,2.638,0,3.494-0.699
					c1.476-1.341,2.482-3.119,2.873-5.074c0.225-1.727-1.859-3.572-3.439-3.769c-3.23-0.396-4.956,4.731-5.141,7.143L376.089,57.185
					z"/>
			</g>
			<g>
				<path fill="#C4B0FF" d="M368.893,347.93c-0.986,1.505-1.363,3.328-1.056,5.102c0.132,1.066,0.146,2.504,1.542,2.859
					c3.296,0.83,6.71-5.271,7.594-7.288c0.764-1.583,1.123-3.331,1.041-5.088c-0.093-0.962-0.805-2.846-1.951-3.241
					c-0.803-0.147-1.629-0.084-2.4,0.181c-0.771,0.266-1.46,0.725-2.002,1.335c-2.479,2.478-2.294,5.338-3.639,8.013L368.893,347.93
					z"/>
			</g>
			<g>
				<path fill="#C4B0FF" d="M367.165,347.706c-0.86,0.127-1.705,0.348-2.517,0.659c-0.409,0.237-1.056,0.606-1.2,0.988
					c-0.146,0.383,0.159,0.976,0.554,1.318c0.169,0.122,0.365,0.203,0.571,0.235s0.417,0.015,0.614-0.051
					c0.322-0.19,0.607-0.436,0.845-0.726c0.378-0.404,0.714-0.845,1.002-1.318c0.168-0.204,0.309-0.431,0.421-0.672
					c0.119-0.368-0.158-0.461-0.237-0.737L367.165,347.706z"/>
			</g>
			<g>
				<path fill="#C4B0FF" d="M363.396,362.335l1.106,0.33c-0.119,0.369,0,0.777-0.476,1.054c-0.465,0.195-0.975,0.264-1.476,0.198
					c-0.487-0.106-0.765-0.382-0.698-0.804c0.065-0.422,0.672-0.738,1.238-0.883L363.396,362.335z"/>
			</g>
			<g>
				<path fill="#C4B0FF" d="M307.614,374.645c0,0.396,0,0.673,0.448,0.844c0.379,0.118,0.782,0.136,1.17,0.053
					s0.748-0.265,1.045-0.527c0.804-0.752,1.516-2.135,1.015-2.887c-0.284-0.289-0.66-0.472-1.063-0.518
					c-0.403-0.047-0.81,0.049-1.152,0.268c-0.4,0.283-0.771,0.605-1.107,0.962c-0.181,0.243-0.308,0.521-0.374,0.816
					c-0.066,0.295-0.069,0.601-0.008,0.896L307.614,374.645z"/>
			</g>
			<g>
				<path fill="#C4B0FF" d="M248.959,279.61c-0.395,0.355-0.593,0.474-0.685,0.975c-0.08,0.268-0.107,0.549-0.077,0.828
					c0.029,0.278,0.114,0.548,0.248,0.793c0.861,1.02,2.049,1.709,3.362,1.95c0.461,0.133,0.947,0.155,1.418,0.066
					c0.472-0.089,0.916-0.288,1.297-0.58c0.471-0.307,0.872-0.712,1.174-1.188c0.302-0.475,0.5-1.009,0.579-1.566
					c0.142-0.543,0.107-1.116-0.099-1.638c-0.206-0.521-0.573-0.963-1.048-1.262c-0.905-0.693-1.948-1.187-3.058-1.449
					c-0.428-0.077-0.867-0.05-1.283,0.078c-0.415,0.129-0.793,0.355-1.103,0.66C249.025,277.83,248.155,278.832,248.959,279.61z"/>
			</g>
			<g>
				<path fill="#C4B0FF" d="M257.606,283.471c0-0.316,0-0.698,0.317-0.791c0.29-0.004,0.578,0.049,0.848,0.158
					c0.269,0.109,0.514,0.27,0.72,0.475c0.29,0.337,0.449,0.768,0.448,1.212c-0.095,0.295-0.291,0.547-0.553,0.712
					c-0.18,0.157-0.406,0.251-0.644,0.268c-0.238,0.016-0.475-0.045-0.674-0.176c-0.277-0.171-0.949-0.527-0.844-0.935
					L257.606,283.471z"/>
			</g>
			<g>
				<path fill="#C4B0FF" d="M92.147,249.732c-2.475-3.361-3.688-7.485-3.427-11.65c0.092-1.779-0.105-4.995,2.425-4.745
					c3.401,0.33,5.141,5.602,6.089,8.237c1.411,3.954,2.781,7.908,2.281,12.138c-0.686,5.786-8.304-5.733-9.056-6.8L92.147,249.732z
					"/>
			</g>
			<g>
				<path fill="#C4B0FF" d="M99.476,230.609c-0.606,3.361,0.896,8.132,4.534,9.226c1.318,0.382,1.779-0.422,2.465-1.648
					c0.388-0.572,0.646-1.223,0.755-1.906c0.109-0.683,0.068-1.382-0.122-2.047c-0.419-0.896-0.946-1.737-1.569-2.504
					c-0.358-0.438-0.672-0.91-0.936-1.411c-0.25-0.54-0.158-0.962-0.58-1.436c-1.015-1.147-4.942-2.082-4.547,0.593V230.609z"/>
			</g>
			<g>
				<path fill="#C4B0FF" d="M136.541,468.955c0.799-2.13,2.253-3.952,4.151-5.206c2.17-1.462,4.579-2.532,7.118-3.163
					c2.404-0.554,4.919-0.361,7.21,0.554c2.228,1.187,4.205,2.952,6.314,4.322c1.911,1.252,3.835,1.951,5.509,3.612
					c1.498,1.537,2.652,3.374,3.388,5.39c1.16,3.058,2.003,7.749,0.698,10.859c-1.186,2.834-2.86,2.874-5.694,2.82
					c-3.954-0.065-7.816-3.308-10.32-6.208c-1.122-1.52-2.389-2.928-3.783-4.203c-1.806-1.424-3.691-2.741-5.589-4.033
					c-1.861-1.028-3.661-2.164-5.391-3.4C139.427,469.667,137.081,467.874,136.541,468.955z"/>
			</g>
			<g>
				<path fill="#C4B0FF" d="M205.054,289.27c-0.25,1.45-0.619,2.082,0.448,2.794c0.329,0.235,0.723,0.361,1.127,0.361
					c0.405,0,0.799-0.126,1.127-0.361c0.804-0.475,2.637-2.188,2.36-3.203c-0.475-2.122-5.8-2.201-5.523,0.369L205.054,289.27z"/>
			</g>
			<g>
				<path fill="#C4B0FF" d="M304.82,357.34c-0.857-3.953,3.176-9.713,7.737-12.941c6.498-4.612,16.371-5.614,23.646-4.64
					c6.104,0.804,11.111,4.033,12.338,8.409c0.329,1.173,0.105,2.398,0.382,3.571c0.224,0.896,0.461,1.41-0.856,2.162
					c-3.282,1.857-8.476,3.004-12.167,3.61c-4.112,0.815-8.29,1.257-12.482,1.318c-3.533-0.079-6.907-0.593-10.439-0.725
					c-1.684,0.006-3.365-0.141-5.022-0.436C307.126,357.512,305.057,357.802,304.82,357.34z"/>
			</g>
			<g>
				<path fill="#C4B0FF" d="M338.286,332.972c0.606,0.751,0.633,1.187,1.832,1.318c0.935-0.007,1.848-0.276,2.636-0.778
					c0.963-0.553,2.294-1.871,1.819-2.635c-0.843-1.437-6.59-0.58-5.997,1.318L338.286,332.972z"/>
			</g>
			<g>
				<path fill="#C4B0FF" d="M428.575,256.533c0.179-1.088,0.578-2.129,1.173-3.058c0.279-0.183,0.592-0.309,0.92-0.37
					s0.665-0.056,0.991,0.014c0.602,0.037,1.187,0.213,1.708,0.515c0.521,0.302,0.966,0.721,1.297,1.225
					c0.575,0.542,1.025,1.204,1.318,1.937c0.909,4.152-6.406,2.359-7.368-0.263H428.575z"/>
			</g>
		</g>
		
			<radialGradient id="SVGID_5_" cx="-54.1294" cy="613.0361" r="0.9998" gradientTransform="matrix(106.487 -68.1715 -32.7206 -51.1111 26248.3867 28124.5742)" gradientUnits="userSpaceOnUse">
			<stop  offset="0" style="stop-color:#2C6AFF"/>
			<stop  offset="1" style="stop-color:#000000;stop-opacity:0"/>
		</radialGradient>
		<path fill="url(#SVGID_5_)" d="M454.916,528.005c58.817-37.654,91.749-91.211,73.556-119.623s-80.623-20.92-139.44,16.734
			c-58.817,37.653-91.749,91.211-73.556,119.623C333.669,573.151,396.098,565.659,454.916,528.005z"/>
	</g>
</g>
<g>
	<defs>
		
			<rect id="SVGID_6_" x="574.998" y="9.575" transform="matrix(-0.4741 0.8805 -0.8805 -0.4741 962.377 -401.7695)" width="52.37" height="153.935"/>
	</defs>
	<clipPath id="SVGID_7_">
		<use xlink:href="#SVGID_6_"  overflow="visible"/>
	</clipPath>
	<g clip-path="url(#SVGID_7_)">
		
			<linearGradient id="SVGID_8_" gradientUnits="userSpaceOnUse" x1="668.8086" y1="491.4561" x2="629.3833" y2="512.6823" gradientTransform="matrix(1 0 0 -1 0 615)">
			<stop  offset="0" style="stop-color:#000000;stop-opacity:0"/>
			<stop  offset="1" style="stop-color:#106D90"/>
		</linearGradient>
		<path fill="url(#SVGID_8_)" d="M624.797,111.23l39.763,19.951l7.304-16.95l-37.406-20.563
			C634.457,93.668,626.525,105.997,624.797,111.23z"/>
		
			<linearGradient id="SVGID_9_" gradientUnits="userSpaceOnUse" x1="644.6563" y1="527.5703" x2="618.2611" y2="541.7813" gradientTransform="matrix(1 0 0 -1 0 615)">
			<stop  offset="0" style="stop-color:#A43440"/>
			<stop  offset="1" style="stop-color:#C73634"/>
		</linearGradient>
		<path fill="url(#SVGID_9_)" d="M618.133,76.416l2.417-7.447c0,0,13.053,5.625,22.592,21.276l-0.346,0.642l-18.393-10.566
			l-0.775,1.332L618.133,76.416z"/>
		
			<linearGradient id="SVGID_10_" gradientUnits="userSpaceOnUse" x1="625.1504" y1="491.3506" x2="598.7555" y2="505.562" gradientTransform="matrix(1 0 0 -1 0 615)">
			<stop  offset="0" style="stop-color:#A43440"/>
			<stop  offset="1" style="stop-color:#C73634"/>
		</linearGradient>
		<path fill="url(#SVGID_10_)" d="M601.491,107.401l-5.022,6.281c0,0,11.883,7.797,30.199,7.147l0.346-0.642l-18.938-9.518
			l0.685-1.381L601.491,107.401z"/>
		
			<radialGradient id="SVGID_11_" cx="-53.7026" cy="612.7305" r="1.0003" gradientTransform="matrix(16.1478 -29.9923 -54.1267 -29.1418 34596.5898 16306.9668)" gradientUnits="userSpaceOnUse">
			<stop  offset="0" style="stop-color:#F4BAB3"/>
			<stop  offset="0.77" style="stop-color:#8D6FC7"/>
			<stop  offset="0.96" style="stop-color:#B695E5"/>
		</radialGradient>
		<path fill="url(#SVGID_11_)" d="M537.364,52.941c-4.728,8.78,8.781,33.786,28.847,43.156c20.064,9.37,53.515,15.691,53.515,15.691
			l6.166-11.188l5.945-11.306c0,0-23.71-24.447-42.562-36.037C570.423,41.668,542.059,44.22,537.364,52.941z"/>
		<path fill="#31165F" d="M619.729,111.794c0,0,5.763-13.41,12.111-22.494C631.841,89.3,626.309,102.527,619.729,111.794z"/>
		
			<radialGradient id="SVGID_12_" cx="-51.5342" cy="607.7129" r="1" gradientTransform="matrix(4.3405 -8.0618 -7.1924 -3.8724 5130.4346 1990.2151)" gradientUnits="userSpaceOnUse">
			<stop  offset="0.02" style="stop-color:#AB5E75"/>
			<stop  offset="0.25" style="stop-color:#9F577B"/>
			<stop  offset="0.67" style="stop-color:#7F458C"/>
			<stop  offset="0.99" style="stop-color:#61349C"/>
		</radialGradient>
		<path fill="url(#SVGID_12_)" d="M539.821,69.478c0,0,2.798-14.531,14.082-23.724c0,0-13.054,0.848-16.539,7.187
			C534.227,58.644,539.821,69.478,539.821,69.478z"/>
		<path fill="#53345F" d="M554.014,45.893c-10.602,8.467-13.977,23.456-14.018,23.62l-0.348-0.074
			c0.03-0.151,3.44-15.279,14.147-23.824L554.014,45.893z"/>
		<path fill="#53345F" d="M536.459,56.266l3.868-6.399C540.327,49.867,536.182,51.933,536.459,56.266z"/>
		
			<linearGradient id="SVGID_13_" gradientUnits="userSpaceOnUse" x1="537.6367" y1="561.666" x2="534.34" y2="563.4409" gradientTransform="matrix(1 0 0 -1 0 615)">
			<stop  offset="0" style="stop-color:#FFFF18"/>
			<stop  offset="1" style="stop-color:#FF7400"/>
		</linearGradient>
		<path fill="url(#SVGID_13_)" d="M536.641,55.184c0.464-1.329,1.102-2.59,1.896-3.751c0,0-3.481-0.941-4.196,0.129
			C533.627,52.631,536.641,55.184,536.641,55.184z"/>
		
			<radialGradient id="SVGID_14_" cx="-52.8213" cy="611.8887" r="1.0004" gradientTransform="matrix(7.6676 -14.2415 -25.8302 -13.9069 16817.2559 7848.2856)" gradientUnits="userSpaceOnUse">
			<stop  offset="0.02" style="stop-color:#8881BC"/>
			<stop  offset="0.29" style="stop-color:#8375B7"/>
			<stop  offset="0.77" style="stop-color:#7555AA"/>
			<stop  offset="0.99" style="stop-color:#6D43A3"/>
		</radialGradient>
		<path opacity="0.5" fill="url(#SVGID_14_)" enable-background="new    " d="M598.036,106.824c0,0,4.064-22.288,16.125-34.329
			c7.12,6.246,17.678,16.808,17.678,16.808s-5.823,7.953-12.11,22.493C619.73,111.794,608.466,110.234,598.036,106.824z"/>
		
			<radialGradient id="SVGID_15_" cx="-52.9209" cy="610.7236" r="1" gradientTransform="matrix(8.1533 -15.1436 -14.9952 -8.0734 10156.7783 4198.7744)" gradientUnits="userSpaceOnUse">
			<stop  offset="0.02" style="stop-color:#8881BC"/>
			<stop  offset="0.29" style="stop-color:#8375B7"/>
			<stop  offset="0.77" style="stop-color:#7555AA"/>
			<stop  offset="0.99" style="stop-color:#6D43A3"/>
		</radialGradient>
		<path opacity="0.5" fill="url(#SVGID_15_)" enable-background="new    " d="M551.035,61.249
			c-3.65,8.241,2.641,18.917,10.588,23.663c7.946,4.745,16.975-0.104,21.073-8.256c4.098-8.153,2.226-17.755-7.192-21.623
			C566.998,51.524,555.091,52.09,551.035,61.249z"/>
		<path fill="#31165F" d="M549.738,60.551c-3.65,8.241,2.641,18.917,10.587,23.663c7.946,4.745,16.976-0.104,21.077-8.255
			c4.1-8.151,2.225-17.755-7.195-21.625C565.704,50.827,553.797,51.394,549.738,60.551z"/>
		
			<radialGradient id="SVGID_16_" cx="-53.2305" cy="612.1621" r="0.9994" gradientTransform="matrix(10.1437 -18.8405 -31.1206 -16.7553 20143.5508 9316.582)" gradientUnits="userSpaceOnUse">
			<stop  offset="0.02" style="stop-color:#725EB0"/>
			<stop  offset="0.38" style="stop-color:#6D52AA"/>
			<stop  offset="0.99" style="stop-color:#61349C"/>
		</radialGradient>
		<path fill="url(#SVGID_16_)" d="M548.834,60.064c-3.65,8.241,2.641,18.917,10.587,23.663c7.946,4.745,16.976-0.104,21.076-8.255
			c4.101-8.151,2.226-17.755-7.194-21.624C564.799,50.34,552.893,50.906,548.834,60.064z"/>
		<path fill="#A6345F" d="M552.021,61.103c-3.393,7.329,2.023,14.838,8.236,18.551c6.213,3.713,13.271-0.12,16.492-6.524
			s1.773-13.923-5.574-16.95C564.512,53.434,555.553,53.439,552.021,61.103z"/>
		
			<linearGradient id="SVGID_17_" gradientUnits="userSpaceOnUse" x1="576.1836" y1="541.1445" x2="553.1296" y2="553.557" gradientTransform="matrix(1 0 0 -1 0 615)">
			<stop  offset="0" style="stop-color:#FFFF29"/>
			<stop  offset="1" style="stop-color:#FF7E59"/>
		</linearGradient>
		<path fill="url(#SVGID_17_)" d="M578.027,65.248c0.327,2.692-0.17,5.42-1.428,7.823c-3.065,6.095-10.463,10.077-16.367,6.548
			c-2.021-1.204-3.797-2.779-5.234-4.641c-2.83-3.674-4.094-8.441-1.925-13.349c3.183-7.267,11.9-7.293,18.227-4.689
			C575.36,58.632,577.521,61.753,578.027,65.248z"/>
		<path fill="#53345F" d="M581.415,75.94l-0.085,0.158l22.612,12.174l0.085-0.158L581.415,75.94z"/>
		<path fill="#53345F" d="M598.111,106.835l-0.175-0.036c5.473-25.057,16.046-34.279,16.15-34.369l0.116,0.136
			C614.107,72.663,603.582,81.853,598.111,106.835z"/>
		<path fill="#53345F" d="M589.665,104.486l-0.177,0.017c-0.011-0.089-0.7-9.125,5.074-21.375l0.155,0.084
			C588.953,95.409,589.658,104.398,589.665,104.486z"/>
		<path fill="#31165F" d="M621.659,94.334l-9.929-4.937l0.778-3.062l10.289,5.882L621.659,94.334z"/>
		
			<radialGradient id="SVGID_18_" cx="-50.2256" cy="609.3975" r="0.9997" gradientTransform="matrix(3.0121 -5.5946 -10.147 -5.4631 6963.6694 3150.6584)" gradientUnits="userSpaceOnUse">
			<stop  offset="0.02" style="stop-color:#725EB0"/>
			<stop  offset="0.38" style="stop-color:#6D52AA"/>
			<stop  offset="0.99" style="stop-color:#61349C"/>
		</radialGradient>
		<path fill="url(#SVGID_18_)" d="M620.929,110.041c0,0,4.33-10.27,10.327-19.39l4.053,2.944l-10.293,17.968L620.929,110.041z"/>
		<path opacity="0.5" fill="#31165F" enable-background="new    " d="M622.997,110.804c0.141-3.016,0.985-5.958,2.464-8.591
			c2.452-4.337,8.914-9.306,8.914-9.306l-3.119-2.255c0,0-6.625,9.894-10.327,19.39L622.997,110.804z"/>
		<path fill="#FFFFFF" d="M558.091,58.731c1.952-0.599,3.989-0.874,6.03-0.814l-0.052-1.996c0,0-3.419-0.332-5.58,1.326
			L558.091,58.731z"/>
		<path fill="#FFFFFF" d="M563.405,78.494l2.874-0.078l0.056,1.656l-2.322-0.08L563.405,78.494z"/>
		
			<radialGradient id="SVGID_19_" cx="-52.1807" cy="609.4238" r="1" gradientTransform="matrix(5.5509 -10.3101 -10.2089 -5.4965 7059.189 2870.6641)" gradientUnits="userSpaceOnUse">
			<stop  offset="0.02" style="stop-color:#8881BC"/>
			<stop  offset="0.29" style="stop-color:#8375B7"/>
			<stop  offset="0.77" style="stop-color:#7555AA"/>
			<stop  offset="0.99" style="stop-color:#6D43A3"/>
		</radialGradient>
		<path opacity="0.5" fill="url(#SVGID_19_)" enable-background="new    " d="M542.403,74.148c0,0,0.35-15.849,15.394-28.653
			l-3.894,0.258c0,0-9.37,7.02-14.082,23.725L542.403,74.148z"/>
		
			<linearGradient id="SVGID_20_" gradientUnits="userSpaceOnUse" x1="596.1133" y1="529.3896" x2="594.7242" y2="530.1378" gradientTransform="matrix(1 0 0 -1 0 615)">
			<stop  offset="0" style="stop-color:#8DC7FF"/>
			<stop  offset="0.32" style="stop-color:#5C4D86"/>
		</linearGradient>
		<path fill="url(#SVGID_20_)" d="M595.797,84.533c0.092,0.05,0.173,0.117,0.238,0.198c0.065,0.082,0.115,0.175,0.144,0.275
			c0.029,0.1,0.039,0.205,0.028,0.309c-0.012,0.104-0.043,0.205-0.094,0.296c-0.1,0.186-0.268,0.325-0.47,0.387
			c-0.2,0.062-0.418,0.041-0.604-0.057c-0.185-0.102-0.321-0.272-0.38-0.474c-0.061-0.202-0.036-0.419,0.063-0.604
			c0.049-0.092,0.115-0.174,0.196-0.241c0.08-0.066,0.173-0.116,0.273-0.147c0.099-0.031,0.203-0.041,0.308-0.031
			C595.604,84.453,595.705,84.483,595.797,84.533z"/>
		
			<radialGradient id="SVGID_21_" cx="-11.5166" cy="537.9316" r="0.9995" gradientTransform="matrix(0.2995 -0.5563 -0.5508 -0.2966 895.6111 238.7538)" gradientUnits="userSpaceOnUse">
			<stop  offset="0.02" style="stop-color:#8881BC"/>
			<stop  offset="0.29" style="stop-color:#8375B7"/>
			<stop  offset="0.77" style="stop-color:#7555AA"/>
			<stop  offset="1" style="stop-color:#6D43A3"/>
		</radialGradient>
		<path fill="url(#SVGID_21_)" d="M595.721,84.674c0.146,0.083,0.251,0.22,0.297,0.381c0.045,0.161,0.026,0.333-0.053,0.479
			s-0.212,0.257-0.371,0.308c-0.16,0.05-0.332,0.037-0.48-0.038c-0.146-0.083-0.251-0.22-0.297-0.381s-0.026-0.333,0.053-0.479
			s0.212-0.257,0.371-0.308C595.398,84.585,595.572,84.599,595.721,84.674z"/>
		
			<linearGradient id="SVGID_22_" gradientUnits="userSpaceOnUse" x1="592.6816" y1="531.2354" x2="591.288" y2="531.9858" gradientTransform="matrix(1 0 0 -1 0 615)">
			<stop  offset="0" style="stop-color:#8DC7FF"/>
			<stop  offset="0.32" style="stop-color:#5C4D86"/>
		</linearGradient>
		<path fill="url(#SVGID_22_)" d="M592.364,82.684c0.183,0.103,0.318,0.273,0.377,0.475c0.057,0.202,0.032,0.418-0.068,0.603
			c-0.1,0.186-0.269,0.324-0.471,0.386c-0.201,0.062-0.419,0.041-0.606-0.058c-0.181-0.103-0.315-0.273-0.373-0.474
			c-0.058-0.201-0.033-0.417,0.066-0.6c0.048-0.093,0.114-0.175,0.195-0.242c0.08-0.067,0.173-0.117,0.272-0.148
			c0.101-0.031,0.205-0.042,0.31-0.032C592.171,82.604,592.271,82.635,592.364,82.684z"/>
		
			<radialGradient id="SVGID_23_" cx="-11.5156" cy="537.9297" r="1" gradientTransform="matrix(0.2995 -0.5563 -0.5508 -0.2966 892.1666 236.8987)" gradientUnits="userSpaceOnUse">
			<stop  offset="0.02" style="stop-color:#8881BC"/>
			<stop  offset="0.29" style="stop-color:#8375B7"/>
			<stop  offset="0.77" style="stop-color:#7555AA"/>
			<stop  offset="1" style="stop-color:#6D43A3"/>
		</radialGradient>
		<path fill="url(#SVGID_23_)" d="M592.288,82.825c0.145,0.083,0.251,0.22,0.296,0.381c0.046,0.161,0.027,0.333-0.052,0.479
			s-0.212,0.258-0.372,0.308c-0.159,0.05-0.331,0.037-0.481-0.038c-0.073-0.04-0.137-0.094-0.188-0.159
			c-0.053-0.065-0.09-0.14-0.112-0.22c-0.023-0.08-0.029-0.164-0.019-0.246c0.011-0.083,0.037-0.162,0.078-0.234
			c0.037-0.074,0.09-0.141,0.152-0.194c0.063-0.054,0.137-0.095,0.216-0.121s0.163-0.035,0.245-0.027
			C592.134,82.762,592.215,82.786,592.288,82.825z"/>
		<path fill="#31165F" d="M563.052,82.758c0.209-0.389,0.067-0.871-0.315-1.078c-0.385-0.207-0.865-0.059-1.074,0.33
			c-0.21,0.389-0.068,0.871,0.315,1.078C562.362,83.294,562.843,83.146,563.052,82.758z"/>
		
			<radialGradient id="SVGID_24_" cx="-11.5156" cy="537.9297" r="1.0007" gradientTransform="matrix(0.2995 -0.5563 -0.5508 -0.2966 862.4528 235.8685)" gradientUnits="userSpaceOnUse">
			<stop  offset="0" style="stop-color:#F4BAB3"/>
			<stop  offset="1" style="stop-color:#8D6FC7"/>
		</radialGradient>
		<path fill="url(#SVGID_24_)" d="M562.658,81.817c0.145,0.083,0.251,0.22,0.297,0.381c0.045,0.161,0.025,0.333-0.053,0.479
			c-0.079,0.147-0.213,0.257-0.371,0.308c-0.16,0.05-0.332,0.037-0.481-0.038c-0.144-0.084-0.25-0.221-0.295-0.381
			s-0.026-0.332,0.053-0.478c0.038-0.074,0.089-0.141,0.152-0.195c0.063-0.054,0.137-0.095,0.216-0.12s0.163-0.035,0.245-0.027
			C562.504,81.754,562.585,81.778,562.658,81.817z"/>
		<path fill="#31165F" d="M553.552,75.143c0.186,0.101,0.322,0.271,0.381,0.474c0.061,0.202,0.036,0.419-0.063,0.604
			c-0.049,0.093-0.116,0.174-0.196,0.241s-0.173,0.117-0.272,0.148c-0.101,0.031-0.205,0.042-0.31,0.032
			c-0.104-0.01-0.205-0.04-0.298-0.089c-0.091-0.05-0.172-0.118-0.238-0.199c-0.064-0.082-0.113-0.175-0.143-0.276
			c-0.029-0.1-0.038-0.206-0.027-0.309c0.011-0.104,0.043-0.205,0.094-0.296c0.1-0.186,0.268-0.325,0.469-0.386
			C553.148,75.024,553.366,75.044,553.552,75.143z"/>
		
			<radialGradient id="SVGID_25_" cx="-11.5156" cy="537.9297" r="1.0008" gradientTransform="matrix(0.2995 -0.5563 -0.5508 -0.2966 853.241 229.3144)" gradientUnits="userSpaceOnUse">
			<stop  offset="0" style="stop-color:#F4BAB3"/>
			<stop  offset="1" style="stop-color:#8D6FC7"/>
		</radialGradient>
		<path fill="url(#SVGID_25_)" d="M553.472,75.293c0.145,0.083,0.251,0.22,0.296,0.38c0.047,0.161,0.027,0.333-0.052,0.48
			c-0.079,0.147-0.213,0.257-0.372,0.308s-0.332,0.037-0.48-0.038c-0.145-0.083-0.251-0.22-0.296-0.38
			c-0.047-0.161-0.027-0.333,0.052-0.479c0.079-0.147,0.213-0.258,0.372-0.308S553.322,75.218,553.472,75.293z"/>
		<path fill="#31165F" d="M574.056,79.278c0.093,0.05,0.172,0.117,0.238,0.199c0.066,0.081,0.114,0.174,0.144,0.275
			c0.029,0.1,0.039,0.205,0.027,0.309c-0.011,0.104-0.043,0.204-0.093,0.296c-0.099,0.186-0.269,0.325-0.469,0.386
			c-0.201,0.062-0.419,0.042-0.605-0.057c-0.184-0.101-0.321-0.271-0.381-0.474s-0.036-0.419,0.065-0.604
			c0.049-0.092,0.114-0.174,0.194-0.241c0.081-0.066,0.174-0.117,0.273-0.147c0.1-0.03,0.205-0.041,0.309-0.031
			C573.863,79.199,573.964,79.229,574.056,79.278z"/>
		
			<radialGradient id="SVGID_26_" cx="-11.5156" cy="537.9316" r="0.9993" gradientTransform="matrix(0.2995 -0.5563 -0.5508 -0.2966 873.8054 233.4716)" gradientUnits="userSpaceOnUse">
			<stop  offset="0" style="stop-color:#F4BAB3"/>
			<stop  offset="1" style="stop-color:#8D6FC7"/>
		</radialGradient>
		<path fill="url(#SVGID_26_)" d="M573.975,79.428c0.146,0.083,0.251,0.22,0.297,0.38c0.046,0.161,0.026,0.333-0.053,0.48
			s-0.212,0.257-0.371,0.308c-0.16,0.051-0.332,0.037-0.48-0.038c-0.146-0.083-0.251-0.22-0.297-0.381
			c-0.045-0.161-0.027-0.333,0.053-0.479c0.079-0.147,0.212-0.258,0.371-0.308S573.826,79.354,573.975,79.428z"/>
		<path fill="#31165F" d="M580.762,68.827c0.092,0.05,0.173,0.118,0.239,0.199c0.065,0.082,0.114,0.175,0.144,0.275
			c0.03,0.1,0.039,0.206,0.028,0.309c-0.011,0.104-0.042,0.205-0.092,0.297c-0.101,0.186-0.27,0.324-0.471,0.386
			c-0.202,0.062-0.419,0.041-0.606-0.058c-0.184-0.101-0.321-0.271-0.381-0.474c-0.059-0.202-0.036-0.419,0.064-0.604
			c0.05-0.092,0.115-0.174,0.196-0.241c0.08-0.066,0.173-0.117,0.273-0.147c0.099-0.031,0.204-0.042,0.308-0.031
			C580.569,68.747,580.67,68.778,580.762,68.827z"/>
		
			<radialGradient id="SVGID_27_" cx="-11.5156" cy="537.9297" r="0.9997" gradientTransform="matrix(0.2995 -0.5563 -0.5508 -0.2966 880.5231 223.0081)" gradientUnits="userSpaceOnUse">
			<stop  offset="0" style="stop-color:#F4BAB3"/>
			<stop  offset="1" style="stop-color:#8D6FC7"/>
		</radialGradient>
		<path fill="url(#SVGID_27_)" d="M580.681,68.977c0.146,0.083,0.251,0.22,0.296,0.381c0.047,0.161,0.027,0.333-0.052,0.479
			s-0.212,0.257-0.372,0.308c-0.159,0.051-0.331,0.037-0.48-0.038c-0.073-0.04-0.138-0.094-0.189-0.159
			c-0.051-0.065-0.09-0.14-0.112-0.22s-0.028-0.164-0.019-0.247c0.011-0.083,0.038-0.162,0.079-0.234
			c0.038-0.074,0.089-0.141,0.151-0.195c0.063-0.054,0.138-0.095,0.217-0.12s0.163-0.035,0.245-0.027
			C580.527,68.914,580.607,68.938,580.681,68.977z"/>
		<path fill="#31165F" d="M578.561,59.029c0.209-0.388,0.068-0.871-0.315-1.078s-0.865-0.059-1.074,0.329
			c-0.209,0.389-0.068,0.872,0.316,1.078C577.871,59.565,578.352,59.417,578.561,59.029z"/>
		
			<radialGradient id="SVGID_28_" cx="-11.5156" cy="537.9297" r="1.0005" gradientTransform="matrix(0.2995 -0.5563 -0.5508 -0.2966 877.991 212.1122)" gradientUnits="userSpaceOnUse">
			<stop  offset="0" style="stop-color:#F4BAB3"/>
			<stop  offset="1" style="stop-color:#8D6FC7"/>
		</radialGradient>
		<path fill="url(#SVGID_28_)" d="M578.168,58.092c0.145,0.083,0.251,0.22,0.297,0.381c0.045,0.161,0.027,0.333-0.053,0.479
			c-0.079,0.147-0.212,0.257-0.371,0.308c-0.159,0.05-0.332,0.037-0.481-0.038c-0.145-0.083-0.251-0.22-0.296-0.38
			c-0.046-0.161-0.026-0.333,0.053-0.48c0.078-0.147,0.212-0.257,0.37-0.308C577.847,58.004,578.019,58.018,578.168,58.092z"/>
		<path fill="#31165F" d="M565.307,52.443c0.092,0.05,0.173,0.118,0.239,0.199c0.065,0.082,0.114,0.175,0.144,0.275
			s0.038,0.205,0.027,0.309c-0.011,0.104-0.043,0.205-0.093,0.296c-0.099,0.186-0.269,0.325-0.469,0.387
			c-0.202,0.062-0.419,0.041-0.605-0.058c-0.184-0.101-0.321-0.271-0.381-0.472c-0.059-0.202-0.037-0.418,0.063-0.603
			c0.048-0.093,0.114-0.175,0.194-0.242c0.081-0.067,0.173-0.117,0.273-0.148c0.1-0.031,0.205-0.042,0.31-0.032
			C565.114,52.364,565.215,52.395,565.307,52.443z"/>
		
			<radialGradient id="SVGID_29_" cx="-11.5151" cy="537.9316" r="0.9999" gradientTransform="matrix(0.2995 -0.5563 -0.5508 -0.2966 865.0115 206.5849)" gradientUnits="userSpaceOnUse">
			<stop  offset="0" style="stop-color:#F4BAB3"/>
			<stop  offset="1" style="stop-color:#8D6FC7"/>
		</radialGradient>
		<path fill="url(#SVGID_29_)" d="M565.23,52.585c0.146,0.083,0.252,0.22,0.298,0.381c0.045,0.16,0.026,0.333-0.054,0.479
			c-0.079,0.147-0.212,0.257-0.371,0.308c-0.158,0.051-0.332,0.037-0.48-0.038c-0.146-0.083-0.251-0.22-0.297-0.381
			c-0.045-0.161-0.026-0.333,0.053-0.479s0.212-0.257,0.371-0.308C564.91,52.497,565.082,52.51,565.23,52.585z"/>
		<path fill="#31165F" d="M555.963,54.567c0.091,0.05,0.172,0.117,0.238,0.199c0.064,0.081,0.113,0.174,0.144,0.274
			c0.029,0.1,0.038,0.206,0.027,0.309s-0.043,0.204-0.093,0.296c-0.1,0.186-0.269,0.325-0.47,0.386
			c-0.2,0.062-0.419,0.042-0.604-0.057c-0.186-0.101-0.322-0.271-0.381-0.474c-0.06-0.202-0.036-0.419,0.064-0.604
			c0.048-0.092,0.115-0.174,0.195-0.241c0.081-0.066,0.173-0.117,0.273-0.147c0.1-0.031,0.204-0.042,0.309-0.031
			C555.77,54.488,555.87,54.519,555.963,54.567z"/>
		
			<radialGradient id="SVGID_30_" cx="-11.5156" cy="537.9316" r="0.9992" gradientTransform="matrix(0.2995 -0.5563 -0.5508 -0.2966 855.6443 208.707)" gradientUnits="userSpaceOnUse">
			<stop  offset="0" style="stop-color:#F4BAB3"/>
			<stop  offset="1" style="stop-color:#8D6FC7"/>
		</radialGradient>
		<path fill="url(#SVGID_30_)" d="M555.882,54.717c0.146,0.083,0.251,0.22,0.297,0.38c0.045,0.161,0.026,0.333-0.053,0.48
			s-0.212,0.257-0.371,0.308s-0.332,0.037-0.481-0.038c-0.145-0.083-0.25-0.22-0.297-0.381c-0.045-0.161-0.025-0.333,0.054-0.479
			s0.212-0.257,0.371-0.308C555.561,54.629,555.732,54.643,555.882,54.717z"/>
		<path fill="#31165F" d="M549.939,63.371c0.186,0.102,0.321,0.272,0.382,0.474c0.059,0.202,0.036,0.419-0.065,0.604
			c-0.048,0.092-0.115,0.174-0.195,0.241c-0.081,0.066-0.173,0.116-0.272,0.147c-0.101,0.031-0.205,0.041-0.31,0.031
			c-0.104-0.01-0.205-0.041-0.297-0.09c-0.091-0.05-0.173-0.117-0.237-0.198c-0.066-0.082-0.115-0.175-0.146-0.275
			c-0.029-0.1-0.039-0.205-0.028-0.309c0.012-0.104,0.042-0.205,0.093-0.296c0.1-0.186,0.269-0.324,0.471-0.386
			S549.754,63.273,549.939,63.371z"/>
		
			<radialGradient id="SVGID_31_" cx="-11.5156" cy="537.9297" r="1" gradientTransform="matrix(0.2995 -0.5563 -0.5508 -0.2966 849.6071 217.5169)" gradientUnits="userSpaceOnUse">
			<stop  offset="0" style="stop-color:#F4BAB3"/>
			<stop  offset="1" style="stop-color:#8D6FC7"/>
		</radialGradient>
		<path fill="url(#SVGID_31_)" d="M549.859,63.521c0.072,0.04,0.138,0.094,0.189,0.159c0.051,0.065,0.09,0.14,0.112,0.22
			s0.028,0.164,0.018,0.247c-0.01,0.083-0.037,0.162-0.079,0.234c-0.037,0.074-0.088,0.141-0.15,0.195
			c-0.064,0.054-0.138,0.095-0.217,0.12c-0.078,0.025-0.162,0.035-0.245,0.027c-0.082-0.007-0.163-0.031-0.236-0.07
			c-0.146-0.083-0.251-0.22-0.297-0.381c-0.045-0.161-0.026-0.333,0.053-0.479s0.212-0.257,0.371-0.308
			C549.538,63.433,549.71,63.446,549.859,63.521z"/>
		<path fill="#6F2561" d="M627.007,120.198l0.279-0.517l-18.966-9.544l-0.258,0.525L627.007,120.198z"/>
		<path fill="#6F2561" d="M624.405,80.311l-0.298,0.504l18.498,10.411l0.189-0.35L624.405,80.311z"/>
		
			<linearGradient id="SVGID_32_" gradientUnits="userSpaceOnUse" x1="637.7324" y1="514.7188" x2="608.4028" y2="530.5102" gradientTransform="matrix(1 0 0 -1 0 615)">
			<stop  offset="0" style="stop-color:#A43411"/>
			<stop  offset="1" style="stop-color:#C73634"/>
		</linearGradient>
		<path fill="url(#SVGID_32_)" d="M608.251,84.771l0.998-1.854l28.331,17.644l-0.695,1.292L608.251,84.771z"/>
		<path fill="#FF4C61" d="M608.251,84.771l5.796,4.786l22.838,12.296L608.251,84.771z"/>
		<path opacity="0.5" fill="#31165F" enable-background="new    " d="M610.12,83.459l21.721,5.841l-2.656,4.351l4.626,2.563
			l-0.806,1.498L610.12,83.459z"/>
		<path fill="#FFFFFF" d="M547.243,78.576c0,0-2.117-0.902-2.663-2.866l0.618-1.026c0.836,1.079,1.613,2.201,2.331,3.361
			L547.243,78.576z"/>
		<g>
			<path fill="#FFFFFF" d="M609.205,69.838l-7.679-6.635l0.29-0.54l7.732,6.536L609.205,69.838z"/>
		</g>
		
			<linearGradient id="SVGID_33_" gradientUnits="userSpaceOnUse" x1="572.9238" y1="567.5938" x2="573.8707" y2="569.3531" gradientTransform="matrix(1 0 0 -1 0 615)">
			<stop  offset="0" style="stop-color:#FFFF18"/>
			<stop  offset="1" style="stop-color:#FF7400"/>
		</linearGradient>
		<path fill="url(#SVGID_33_)" d="M571.382,46.577c0,0,1.094-3.636,3.606,0.797L571.382,46.577z"/>
		
			<linearGradient id="SVGID_34_" gradientUnits="userSpaceOnUse" x1="551.0225" y1="528.0566" x2="551.9127" y2="529.7101" gradientTransform="matrix(1 0 0 -1 0 615)">
			<stop  offset="0" style="stop-color:#FFFF18"/>
			<stop  offset="1" style="stop-color:#FF7400"/>
		</linearGradient>
		<path fill="url(#SVGID_34_)" d="M550.412,84.482c0,0-0.745,3.517,2.527,2.495L550.412,84.482z"/>
		<g opacity="0.5">
			<path fill="#FFFFFF" d="M621.121,108.446c0,0-30.395-5.459-51.464-12.535l-0.041,1.042c0,0,31.745,11.966,50.316,14.37
				L621.121,108.446z"/>
		</g>
		<g>
			<path fill="#FFFFFF" d="M599.705,61.84l-4.854-3.87l0.277-0.514l4.854,3.87L599.705,61.84z"/>
		</g>
		<g>
			<path fill="#FFFFFF" d="M590.069,100.65c0,0,0.546-6.938,2.91-12.55C592.979,88.1,591.292,94.051,590.069,100.65z"/>
		</g>
		<g>
			<path fill="#FFFFFF" d="M583.615,76.891l19.892,10.538C603.507,87.429,596.51,83.21,583.615,76.891z"/>
		</g>
		<g>
			<path fill="#FFFFFF" d="M599.4,102.328c0,0,3.312-15.439,12.686-26.9C612.1,75.436,604.683,83.667,599.4,102.328z"/>
		</g>
		<path fill="#FFFFFF" d="M548.96,71.325c0,0,1.703-1.431-1.08-4.303C548.063,68.495,548.426,69.94,548.96,71.325z"/>
		<g>
			<path fill="#FFFFFF" d="M581.257,73.825c0,0,2.126-4.491,0.228-12.183C581.47,61.634,584.07,67.036,581.257,73.825z"/>
		</g>
		<g>
			<path fill="#FFFFFF" d="M576.569,73.433c0,0,4.079-2.724,1.763-7.336C578.34,66.102,579.038,69.091,576.569,73.433z"/>
		</g>
		<g opacity="0.36">
			<g opacity="0.36">
				<path fill="#FFFFFF" d="M584.657,78.746c0.03,0.308,0.009,0.857,0.39,0.968c0.179,0.03,0.359,0.05,0.54,0.061
					c0.158,0.031,0.312,0.077,0.461,0.139c0.244,0.101,0.511,0.13,0.771,0.083c0.167-0.045,0.115-0.215,0.042-0.342
					c-0.063-0.146-0.161-0.272-0.287-0.366c-0.18-0.099-0.348-0.216-0.501-0.35c-0.06-0.054-0.093-0.141-0.156-0.197
					c-0.089-0.061-0.183-0.112-0.283-0.152c-0.158-0.08-0.338-0.108-0.513-0.08C584.945,78.538,584.783,78.621,584.657,78.746z"/>
			</g>
			<g opacity="0.36">
				<path fill="#FFFFFF" d="M586.999,81.195c-0.048-0.005-0.093-0.025-0.129-0.056c-0.037-0.032-0.063-0.073-0.076-0.119
					c0.183-0.339,0.914-0.099,0.87,0.286c-0.048,0.448-0.569,0.226-0.727-0.005L586.999,81.195z"/>
			</g>
			<g opacity="0.36">
				<path fill="#FFFFFF" d="M587.874,89.696c0.01-0.221-0.027-0.43,0.123-0.601c0.126-0.139,0.294-0.234,0.478-0.271
					c0.228-0.035,0.46-0.021,0.682,0.042c0.11,0.004,0.218,0.04,0.308,0.104c0.337,0.316,0.366,0.926,0.289,1.34
					c-0.032,0.242-0.091,0.479-0.177,0.707c-0.08,0.15-0.127,0.318-0.182,0.479c-0.024,0.139-0.078,0.271-0.157,0.389
					c-0.095,0.081-0.199,0.147-0.313,0.196c-0.146,0.074-0.309,0.111-0.473,0.108c-0.164-0.003-0.325-0.047-0.469-0.126
					c-0.502-0.295-0.577-1.135-0.561-1.668C587.439,89.961,587.523,89.299,587.874,89.696z"/>
			</g>
			<g opacity="0.36">
				<path fill="#FFFFFF" d="M588.052,87.7c0.119,0.126,0.142,0.193,0.298,0.124c0.051-0.032,0.093-0.074,0.124-0.124
					c0.031-0.049,0.053-0.105,0.061-0.164c0.038-0.212-0.11-0.587-0.362-0.559c-0.127,0.019-0.38,0.09-0.467,0.189
					c-0.054,0.131-0.062,0.277-0.019,0.412c0.043,0.135,0.133,0.251,0.253,0.327L588.052,87.7z"/>
			</g>
			<g opacity="0.36">
				<path fill="#FFFFFF" d="M596.699,83.622c0.063,0.064,0.138,0.117,0.22,0.155c0.198,0.106,0.396,0.213,0.596,0.321
					c0.373,0.201,0.718,0.46,1.101,0.665c0.275,0.14,0.563,0.257,0.857,0.349c0.151,0.055,0.305,0.103,0.46,0.142
					c0.017-0.031-0.057-0.078-0.08-0.108c-0.079-0.104-0.18-0.195-0.25-0.302c-0.155-0.244-0.323-0.495-0.498-0.727
					c-0.038-0.039-0.072-0.082-0.102-0.128c-0.028-0.063-0.044-0.141-0.068-0.205c-0.043-0.121-0.104-0.235-0.184-0.336
					c-0.201-0.218-0.447-0.39-0.722-0.501c-0.087-0.047-0.184-0.066-0.27-0.108c-0.094-0.051-0.191-0.096-0.292-0.135
					c-0.216-0.067-0.444-0.09-0.67-0.069c-0.26,0.01-0.679-0.045-0.875,0.185c-0.096,0.109,0.017,0.232,0.108,0.307
					c0.091,0.074,0.245,0.161,0.363,0.25C596.515,83.464,596.736,83.664,596.699,83.622z"/>
			</g>
			<g opacity="0.36">
				<path fill="#FFFFFF" d="M595.079,82.4c-0.063-0.106-0.211-0.285-0.085-0.41s0.306-0.021,0.409,0.053
					c0.238,0.179-0.202,0.375-0.371,0.255L595.079,82.4z"/>
			</g>
			<g opacity="0.36">
				<path fill="#FFFFFF" d="M598.097,80.708c0.061,0.106,0.154,0.189,0.268,0.235c0.078,0.026,0.164,0.021,0.237-0.014
					c0.075-0.035,0.134-0.098,0.163-0.175c0.129-0.24,0.168-0.435-0.038-0.607c-0.086-0.053-0.182-0.087-0.282-0.101
					c-0.101-0.013-0.202-0.005-0.3,0.024c-0.076,0.03-0.142,0.084-0.186,0.155c-0.079,0.147-0.015,0.272,0.063,0.398L598.097,80.708
					z"/>
			</g>
			<g opacity="0.36">
				<path fill="#FFFFFF" d="M608.478,79.313c0.015-0.456,0.083-0.909,0.204-1.348c0.145-0.37,0.309-0.732,0.493-1.083
					c0.183-0.518,0.329-1.048,0.438-1.586c0.098-0.473,0.31-0.914,0.619-1.285c0.128-0.149,0.284-0.271,0.461-0.358
					s0.368-0.137,0.564-0.146c0.238,0.009,0.473,0.059,0.694,0.147c0.099,0.053,0.2,0.082,0.299,0.121
					c0.065,0.015,0.128,0.036,0.188,0.064c0.093,0.05,0.071,0.09,0.023,0.177c-0.072,0.159-0.192,0.292-0.343,0.38
					c-0.251,0.17-0.47,0.382-0.648,0.628c-0.182,0.23-0.372,0.441-0.539,0.683l-0.498,0.702c-0.146,0.198-0.299,0.393-0.443,0.595
					c-0.146,0.203-0.264,0.413-0.393,0.62c-0.13,0.207-0.191,0.356-0.288,0.534c-0.061,0.113-0.138,0.21-0.198,0.323
					c-0.048,0.087-0.101,0.17-0.16,0.25c-0.049,0.081-0.095,0.165-0.135,0.251C608.716,79.104,608.603,79.216,608.478,79.313z"/>
			</g>
			<g opacity="0.36">
				<path fill="#FFFFFF" d="M608.165,76.178c0.016,0.078,0.016,0.173,0.076,0.224c0.034,0.025,0.07,0.045,0.109,0.059
					c0.179,0.049,0.331-0.215,0.401-0.345c0.219-0.373,0.289-0.814,0.196-1.236c-0.034-0.144-0.102-0.278-0.195-0.392
					s-0.213-0.205-0.348-0.265c-0.372-0.109-0.753,0.152-0.991,0.425c-0.238,0.272-0.456,0.658-0.353,1.006
					c0.029,0.123,0.1,0.232,0.197,0.311c0.091,0.043,0.184,0.081,0.278,0.113c0.119,0.063,0.187,0.181,0.337,0.181
					C607.977,76.263,608.079,76.235,608.165,76.178z"/>
			</g>
			<g opacity="0.36">
				<path fill="#FFFFFF" d="M609.357,74.024c-0.039-0.004-0.075-0.021-0.104-0.046c-0.03-0.026-0.05-0.061-0.058-0.099
					c-0.023-0.037-0.033-0.082-0.028-0.125s0.025-0.084,0.055-0.115c0.026-0.029,0.059-0.052,0.093-0.067
					c0.036-0.016,0.074-0.023,0.113-0.022c0.039,0.001,0.077,0.01,0.112,0.027c0.034,0.017,0.064,0.041,0.09,0.07
					c0.027,0.046,0.042,0.099,0.044,0.153s-0.01,0.107-0.035,0.155c-0.024,0.052-0.065,0.094-0.118,0.119
					c-0.052,0.025-0.11,0.032-0.167,0.019L609.357,74.024z"/>
			</g>
			<g opacity="0.36">
				<path fill="#FFFFFF" d="M603.099,67.057c-0.029,0.138-0.006,0.282,0.069,0.401c0.013,0.036,0.037,0.066,0.067,0.089
					c0.03,0.022,0.067,0.035,0.104,0.037c0.256-0.003,0.501-0.097,0.693-0.265c0.062-0.058,0.111-0.128,0.146-0.207
					c0.035-0.078,0.054-0.162,0.056-0.247c-0.021-0.151-0.065-0.297-0.132-0.435c-0.046-0.124-0.1-0.24-0.168-0.364
					c-0.029-0.105-0.093-0.199-0.179-0.266c-0.087-0.067-0.193-0.104-0.302-0.106c-0.119,0.012-0.233,0.053-0.332,0.119
					s-0.18,0.156-0.237,0.26c-0.063,0.149-0.089,0.312-0.076,0.473C602.82,66.717,602.801,66.86,603.099,67.057z"/>
			</g>
			<g opacity="0.36">
				<path fill="#FFFFFF" d="M603.508,68.221c0.066-0.104,0.152-0.194,0.252-0.265c0.048,0.026,0.105-0.02,0.15,0.033
					c0.044,0.053-0.032,0.194-0.068,0.255c-0.047,0.081-0.122,0.14-0.211,0.167c-0.033,0.007-0.172,0.049-0.143-0.026
					L603.508,68.221z"/>
			</g>
			<g opacity="0.36">
				<path fill="#FFFFFF" d="M604.507,81.367c0.085,0.133,0.18,0.282,0.381,0.234c0.084-0.037,0.156-0.098,0.205-0.176
					c0.05-0.078,0.075-0.168,0.073-0.261c0.009-0.09,0.016-0.192-0.061-0.248c-0.074-0.055-0.172-0.093-0.257-0.138
					c-0.2-0.108-0.231-0.395-0.522-0.315c-0.069,0.022-0.132,0.059-0.186,0.107c-0.053,0.049-0.096,0.108-0.124,0.175
					c-0.07,0.228,0.085,0.446,0.22,0.61L604.507,81.367z"/>
			</g>
			<g opacity="0.36">
				<path fill="#FFFFFF" d="M603.087,101.761c-0.073,0.257-0.072,0.528,0.001,0.784l0.088,0.048
					c0.055,0.073,0.126,0.133,0.207,0.177c0.081,0.043,0.17,0.069,0.262,0.075c0.584,0.005,0.789-0.504,1.022-0.944
					c0.233-0.439,0.625-1.038-0.134-1.166c-0.336-0.053-0.898-0.18-1.229-0.005c-0.178,0.093-0.17,0.193-0.194,0.361
					c-0.06,0.231-0.073,0.471-0.041,0.707L603.087,101.761z"/>
			</g>
			<g opacity="0.36">
				<path fill="#FFFFFF" d="M606.699,96.78c-0.085-0.14-0.272-0.375-0.193-0.57c0.079-0.194,0.179-0.162,0.313-0.229
					c0.294-0.147,0.637-0.255,0.81,0.141c0.034,0.106,0.043,0.218,0.027,0.329c-0.017,0.11-0.059,0.215-0.121,0.306
					c-0.112,0.14-0.44,0.303-0.593,0.154L606.699,96.78z"/>
			</g>
			<g opacity="0.36">
				<path fill="#FFFFFF" d="M578.305,52.593c0.26,0.362,0.272,0.387,0.683,0.48c0.306,0.107,0.634,0.138,0.955,0.088
					c0.435-0.13,0.551-0.523,0.807-0.823c0.099-0.085,0.174-0.195,0.218-0.318c0.043-0.124,0.053-0.256,0.029-0.384
					c-0.064-0.336-0.19-0.659-0.37-0.95c-0.314-0.444-0.722-0.815-1.195-1.084c-0.472-0.27-0.999-0.432-1.541-0.476
					c-0.663-0.047-1.47-0.019-1.97,0.503c-0.215,0.213-0.368,0.48-0.444,0.774c-0.075,0.293-0.07,0.602,0.015,0.893
					c0.107,0.281,0.281,0.532,0.507,0.732c0.225,0.2,0.495,0.343,0.787,0.417l0.417,0.093c0.165,0.069,0.322,0.154,0.472,0.254
					C577.853,52.856,578.055,52.841,578.305,52.593z"/>
			</g>
			<g opacity="0.36">
				<path fill="#FFFFFF" d="M579.145,54.303c0.468-0.19,0.375-0.163,0.749-0.038c0.162,0.058,0.228,0.013,0.351,0.123
					c0.076,0.089,0.123,0.199,0.136,0.316s-0.01,0.234-0.065,0.338c-0.077,0.144-0.48,0.215-0.618,0.214
					c-0.085,0.003-0.169-0.019-0.242-0.063c-0.072-0.044-0.13-0.109-0.167-0.187L579.145,54.303z"/>
			</g>
			<g opacity="0.36">
				<path fill="#FFFFFF" d="M560.655,88.455c0.245,0.223,0.548,0.513,0.933,0.298c0.256-0.15,0.304-0.565,0.26-0.841
					c-0.115-0.473-0.38-0.896-0.754-1.207c-0.345-0.252-0.983-0.013-1.212,0.309c-0.464,0.658,0.436,1.623,0.923,1.955
					L560.655,88.455z"/>
			</g>
			<g opacity="0.36">
				<path fill="#FFFFFF" d="M563.604,90.669c-0.104-0.004-0.432,0.037-0.519-0.046c-0.048-0.025-0.018-0.101-0.046-0.145
					c-0.05-0.072-0.085-0.155-0.102-0.241c-0.016-0.087-0.014-0.176,0.008-0.262c0.049-0.173,0.152-0.326,0.297-0.435
					c0.144-0.108,0.319-0.166,0.5-0.165c0.117-0.016,0.236,0.011,0.336,0.076c0.099,0.065,0.17,0.165,0.202,0.279
					c0.042,0.153,0.025,0.316-0.045,0.458c-0.071,0.143-0.193,0.253-0.342,0.311L563.604,90.669z"/>
			</g>
			<g opacity="0.36">
				<path fill="#FFFFFF" d="M617.6,79.614c0.389,0.474,0.921,0.809,1.518,0.952c0.379,0.116,0.854,0.311,1.206,0.022
					c0.822-0.676-0.66-2.335-1.162-2.813c-0.435-0.418-0.951-0.74-1.518-0.945c-0.339-0.109-1.083-0.196-1.404,0.024
					c-0.415,0.283-0.412,0.872-0.229,1.262c0.402,0.945,1.396,1.28,2.061,1.969L617.6,79.614z"/>
			</g>
			<g opacity="0.36">
				<path fill="#FFFFFF" d="M617.238,79.995c-0.1,0.221-0.166,0.455-0.199,0.695c0.01,0.129,0.023,0.334,0.13,0.435
					c0.075,0.049,0.161,0.078,0.251,0.085c0.089,0.007,0.179-0.009,0.26-0.046c0.063-0.018,0.118-0.05,0.164-0.095
					c0.046-0.044,0.079-0.1,0.099-0.161c0.012-0.096-0.063-0.22-0.104-0.303c-0.075-0.152-0.168-0.295-0.277-0.426
					c-0.043-0.069-0.095-0.132-0.152-0.188c-0.102-0.083-0.183-0.028-0.285-0.047L617.238,79.995z"/>
			</g>
			<g opacity="0.36">
				<path fill="#FFFFFF" d="M621.47,82.904l0.288-0.21c0.103,0.081,0.255,0.108,0.27,0.258c-0.015,0.142-0.076,0.276-0.176,0.379
					c-0.05,0.051-0.115,0.084-0.187,0.093s-0.144-0.005-0.205-0.042c-0.153-0.082-0.137-0.26-0.088-0.412L621.47,82.904z"/>
			</g>
			<g opacity="0.36">
				<path fill="#FFFFFF" d="M620.273,99.649c0.041,0.063,0.102,0.11,0.172,0.136c0.069,0.025,0.146,0.027,0.219,0.005
					c0.122-0.028,0.229-0.102,0.3-0.207c0.07-0.104,0.098-0.231,0.079-0.355c-0.058-0.359-0.347-0.879-0.726-0.988
					c-0.236-0.069-0.636,0.077-0.625,0.363c0,0.161,0.018,0.322,0.056,0.479c0.097,0.231,0.268,0.423,0.486,0.546L620.273,99.649z"
					/>
			</g>
			<g opacity="0.36">
				<path fill="#FFFFFF" d="M555.187,50.728c0.04,0.149,0.042,0.219,0.156,0.313c0.118,0.116,0.277,0.183,0.444,0.184
					c0.388-0.085,0.736-0.303,0.982-0.615c0.101-0.103,0.176-0.228,0.22-0.364c0.043-0.136,0.055-0.281,0.032-0.423
					c-0.013-0.166-0.062-0.327-0.143-0.472c-0.081-0.145-0.192-0.271-0.325-0.371c-0.122-0.111-0.276-0.182-0.44-0.201
					c-0.164-0.02-0.33,0.014-0.476,0.094c-0.308,0.143-0.584,0.348-0.809,0.603c-0.081,0.102-0.136,0.221-0.161,0.348
					s-0.02,0.258,0.015,0.383C554.734,50.458,554.873,50.824,555.187,50.728z"/>
			</g>
			<g opacity="0.36">
				<path fill="#FFFFFF" d="M557.415,48.993c-0.085-0.045-0.185-0.099-0.162-0.193c0.038-0.077,0.092-0.146,0.158-0.202
					c0.065-0.056,0.142-0.098,0.225-0.124c0.13-0.03,0.267-0.011,0.383,0.054c0.064,0.065,0.103,0.151,0.106,0.243
					c0.014,0.066,0.007,0.135-0.021,0.197c-0.027,0.062-0.073,0.114-0.132,0.147c-0.084,0.046-0.272,0.174-0.361,0.09
					L557.415,48.993z"/>
			</g>
			<g opacity="0.36">
				<path fill="#FFFFFF" d="M543.041,50.209c0.116,0.085,0.258,0.125,0.401,0.114c0.261-0.019,0.514-0.097,0.738-0.229
					c0.308-0.155,0.557-0.404,0.711-0.711c0.035-0.123,0.034-0.254-0.003-0.376c-0.038-0.122-0.109-0.231-0.209-0.313
					c-0.257-0.174-0.567-0.251-0.878-0.217c-0.275,0.038-0.54,0.141-0.768,0.302c-0.229,0.161-0.415,0.373-0.545,0.621
					C542.241,49.975,543.047,50.435,543.041,50.209z"/>
			</g>
			<g opacity="0.36">
				<path fill="#FFFFFF" d="M546.254,48.852c-0.085,0.03-0.177,0.037-0.265,0.018c0.007-0.102-0.067-0.174-0.054-0.28
					c0.025-0.103,0.09-0.192,0.179-0.25c0.055-0.041,0.12-0.065,0.188-0.072c0.068-0.007,0.136,0.004,0.198,0.032
					c0.141,0.076,0.146,0.141,0.144,0.289s0.008,0.135-0.104,0.195c-0.068,0.043-0.141,0.079-0.215,0.107L546.254,48.852z"/>
			</g>
		</g>
		
			<linearGradient id="SVGID_35_" gradientUnits="userSpaceOnUse" x1="599.9707" y1="513.123" x2="598.3637" y2="513.9885" gradientTransform="matrix(1 0 0 -1 0 615)">
			<stop  offset="0" style="stop-color:#8DC7FF"/>
			<stop  offset="0.32" style="stop-color:#5C4D86"/>
		</linearGradient>
		<path fill="url(#SVGID_35_)" d="M599.482,100.855c0.442,0.239,0.663,0.697,0.488,1.022s-0.678,0.393-1.122,0.154
			c-0.443-0.239-0.661-0.695-0.485-1.021C598.538,100.686,599.038,100.617,599.482,100.855z"/>
		<path fill="#FFFFFF" d="M599.415,100.98c0.351,0.188,0.521,0.547,0.384,0.804c-0.139,0.257-0.532,0.311-0.883,0.123
			c-0.35-0.189-0.522-0.547-0.383-0.805C598.671,100.845,599.068,100.793,599.415,100.98z"/>
		
			<linearGradient id="SVGID_36_" gradientUnits="userSpaceOnUse" x1="610.9141" y1="537.4561" x2="609.3055" y2="538.3226" gradientTransform="matrix(1 0 0 -1 0 615)">
			<stop  offset="0" style="stop-color:#8DC7FF"/>
			<stop  offset="0.32" style="stop-color:#5C4D86"/>
		</linearGradient>
		<path fill="url(#SVGID_36_)" d="M610.455,76.459c0.202,0.085,0.363,0.247,0.447,0.449c0.085,0.202,0.087,0.43,0.006,0.633
			c-0.126,0.18-0.316,0.304-0.532,0.344c-0.215,0.041-0.438-0.004-0.621-0.126c-0.202-0.085-0.363-0.247-0.448-0.449
			s-0.088-0.43-0.007-0.635c0.126-0.18,0.318-0.303,0.534-0.343C610.049,76.292,610.273,76.338,610.455,76.459z"/>
		<path fill="#FFFFFF" d="M610.38,76.598c0.16,0.067,0.286,0.194,0.353,0.353c0.067,0.159,0.069,0.338,0.006,0.499
			c-0.1,0.142-0.25,0.239-0.419,0.271c-0.171,0.032-0.347-0.004-0.489-0.1c-0.159-0.067-0.286-0.194-0.354-0.354
			c-0.066-0.159-0.067-0.338-0.005-0.499c0.1-0.141,0.25-0.238,0.419-0.271C610.061,76.466,610.237,76.502,610.38,76.598z"/>
		
			<linearGradient id="SVGID_37_" gradientUnits="userSpaceOnUse" x1="604.7871" y1="526.375" x2="603.1791" y2="527.2407" gradientTransform="matrix(1 0 0 -1 0 615)">
			<stop  offset="0" style="stop-color:#8DC7FF"/>
			<stop  offset="0.32" style="stop-color:#5C4D86"/>
		</linearGradient>
		<path fill="url(#SVGID_37_)" d="M604.787,88.625c0.242-0.449,0.078-1.008-0.367-1.248c-0.445-0.239-1.002-0.069-1.244,0.38
			c-0.242,0.45-0.077,1.008,0.368,1.248C603.988,89.245,604.545,89.075,604.787,88.625z"/>
		<path fill="#FFFFFF" d="M604.327,87.55c0.168,0.093,0.293,0.248,0.347,0.432c0.054,0.184,0.032,0.382-0.059,0.55
			c-0.09,0.169-0.244,0.296-0.428,0.352c-0.184,0.057-0.382,0.038-0.552-0.051c-0.168-0.093-0.292-0.248-0.346-0.432
			c-0.054-0.184-0.033-0.382,0.059-0.55c0.091-0.169,0.244-0.296,0.428-0.352C603.959,87.442,604.157,87.461,604.327,87.55z"/>
		
			<radialGradient id="SVGID_38_" cx="-52.9536" cy="603.3652" r="1.0005" gradientTransform="matrix(0.6753 -5.3414 -5.275 -0.6669 3822.6589 207.5778)" gradientUnits="userSpaceOnUse">
			<stop  offset="0" style="stop-color:#003CEE"/>
			<stop  offset="0.06" style="stop-color:#0036D6"/>
			<stop  offset="0.2" style="stop-color:#00289E"/>
			<stop  offset="0.34" style="stop-color:#001C6D"/>
			<stop  offset="0.48" style="stop-color:#001246"/>
			<stop  offset="0.62" style="stop-color:#000A27"/>
			<stop  offset="0.75" style="stop-color:#000412"/>
			<stop  offset="0.88" style="stop-color:#000104"/>
			<stop  offset="1" style="stop-color:#000000"/>
		</radialGradient>
		<path fill="url(#SVGID_38_)" d="M604.807,82.611c0.695,0.086,1.366,0.309,1.975,0.655c0.607,0.347,1.141,0.811,1.567,1.366
			c0.429,0.555,0.741,1.188,0.921,1.865c0.182,0.676,0.226,1.382,0.132,2.076c-0.179,1.408-0.905,2.69-2.021,3.566
			c-1.117,0.876-2.534,1.278-3.945,1.117c-0.694-0.086-1.364-0.309-1.973-0.656s-1.141-0.812-1.568-1.366
			c-0.428-0.555-0.74-1.188-0.921-1.865c-0.181-0.676-0.226-1.381-0.132-2.075c0.178-1.409,0.904-2.69,2.021-3.566
			C601.979,82.851,603.396,82.45,604.807,82.611z"/>
		
			<radialGradient id="SVGID_39_" cx="-52.562" cy="600.7988" r="1" gradientTransform="matrix(0.5388 -4.2617 -4.2087 -0.5321 3129.7002 142.0597)" gradientUnits="userSpaceOnUse">
			<stop  offset="0" style="stop-color:#FF9A00"/>
			<stop  offset="0.09" style="stop-color:#D68100"/>
			<stop  offset="0.23" style="stop-color:#9E5F00"/>
			<stop  offset="0.36" style="stop-color:#6E4200"/>
			<stop  offset="0.5" style="stop-color:#462A00"/>
			<stop  offset="0.63" style="stop-color:#271800"/>
			<stop  offset="0.76" style="stop-color:#120B00"/>
			<stop  offset="0.89" style="stop-color:#040300"/>
			<stop  offset="1" style="stop-color:#000000"/>
		</radialGradient>
		<path fill="url(#SVGID_39_)" d="M573.391,42.169c0.555,0.068,1.09,0.246,1.575,0.522c0.485,0.277,0.911,0.647,1.252,1.089
			c0.341,0.442,0.591,0.948,0.736,1.488c0.144,0.54,0.18,1.103,0.104,1.656c-0.143,1.124-0.723,2.146-1.614,2.846
			c-0.893,0.699-2.023,1.02-3.149,0.891c-0.554-0.069-1.089-0.247-1.574-0.524s-0.911-0.647-1.252-1.09
			c-0.341-0.442-0.591-0.948-0.734-1.488c-0.145-0.54-0.181-1.103-0.106-1.657c0.144-1.124,0.724-2.146,1.615-2.844
			C571.135,42.359,572.265,42.04,573.391,42.169z"/>
		
			<radialGradient id="SVGID_40_" cx="-52.5625" cy="600.7988" r="1.0002" gradientTransform="matrix(0.5388 -4.2617 -4.2087 -0.5321 3093.583 148.6066)" gradientUnits="userSpaceOnUse">
			<stop  offset="0" style="stop-color:#FF9A00"/>
			<stop  offset="0.09" style="stop-color:#D68100"/>
			<stop  offset="0.23" style="stop-color:#9E5F00"/>
			<stop  offset="0.36" style="stop-color:#6E4200"/>
			<stop  offset="0.5" style="stop-color:#462A00"/>
			<stop  offset="0.63" style="stop-color:#271800"/>
			<stop  offset="0.76" style="stop-color:#120B00"/>
			<stop  offset="0.89" style="stop-color:#040300"/>
			<stop  offset="1" style="stop-color:#000000"/>
		</radialGradient>
		<path fill="url(#SVGID_40_)" d="M537.221,48.698c0.555,0.068,1.09,0.246,1.575,0.523c0.485,0.276,0.911,0.647,1.252,1.089
			c0.341,0.442,0.591,0.948,0.736,1.488c0.144,0.54,0.18,1.103,0.104,1.656c-0.141,1.125-0.721,2.148-1.612,2.848
			c-0.893,0.7-2.024,1.02-3.151,0.889c-0.554-0.068-1.089-0.246-1.575-0.523c-0.485-0.277-0.91-0.647-1.252-1.089
			c-0.341-0.442-0.591-0.948-0.735-1.488c-0.145-0.54-0.181-1.103-0.105-1.656c0.143-1.124,0.723-2.147,1.614-2.847
			S536.095,48.568,537.221,48.698z"/>
		
			<radialGradient id="SVGID_41_" cx="-50.7505" cy="588.9238" r="0.9998" gradientTransform="matrix(0.2785 -2.2025 -2.1751 -0.275 1846.366 136.2291)" gradientUnits="userSpaceOnUse">
			<stop  offset="0" style="stop-color:#FF9A00"/>
			<stop  offset="0.09" style="stop-color:#D68100"/>
			<stop  offset="0.23" style="stop-color:#9E5F00"/>
			<stop  offset="0.36" style="stop-color:#6E4200"/>
			<stop  offset="0.5" style="stop-color:#462A00"/>
			<stop  offset="0.63" style="stop-color:#271800"/>
			<stop  offset="0.76" style="stop-color:#120B00"/>
			<stop  offset="0.89" style="stop-color:#040300"/>
			<stop  offset="1" style="stop-color:#000000"/>
		</radialGradient>
		<path fill="url(#SVGID_41_)" d="M551.478,83.776c0.286,0.035,0.563,0.127,0.814,0.27c0.25,0.143,0.47,0.334,0.647,0.563
			c0.176,0.229,0.305,0.49,0.38,0.768c0.074,0.279,0.093,0.57,0.055,0.856c-0.074,0.581-0.374,1.11-0.835,1.472
			c-0.46,0.362-1.045,0.528-1.627,0.461c-0.287-0.035-0.564-0.127-0.814-0.271c-0.251-0.143-0.471-0.334-0.646-0.563
			s-0.306-0.49-0.38-0.769c-0.074-0.279-0.094-0.57-0.055-0.856c0.075-0.58,0.374-1.108,0.835-1.47
			C550.312,83.875,550.896,83.71,551.478,83.776z"/>
		
			<radialGradient id="SVGID_42_" cx="-50.4897" cy="587.2129" r="1.0002" gradientTransform="matrix(0.2603 -2.0592 -2.0336 -0.2571 1817.1735 124.5639)" gradientUnits="userSpaceOnUse">
			<stop  offset="0" style="stop-color:#003CEE"/>
			<stop  offset="0.06" style="stop-color:#0036D6"/>
			<stop  offset="0.2" style="stop-color:#00289E"/>
			<stop  offset="0.34" style="stop-color:#001C6D"/>
			<stop  offset="0.48" style="stop-color:#001246"/>
			<stop  offset="0.62" style="stop-color:#000A27"/>
			<stop  offset="0.75" style="stop-color:#000412"/>
			<stop  offset="0.88" style="stop-color:#000104"/>
			<stop  offset="1" style="stop-color:#000000"/>
		</radialGradient>
		<path fill="url(#SVGID_42_)" d="M610.17,75.438c0.27,0.032,0.529,0.118,0.765,0.251c0.235,0.133,0.442,0.313,0.608,0.526
			c0.166,0.214,0.287,0.459,0.358,0.721c0.069,0.261,0.088,0.534,0.052,0.803c-0.068,0.543-0.349,1.038-0.779,1.376
			c-0.432,0.338-0.979,0.492-1.522,0.428c-0.269-0.033-0.526-0.119-0.761-0.252s-0.439-0.312-0.604-0.525
			c-0.165-0.214-0.285-0.458-0.355-0.718c-0.069-0.26-0.087-0.532-0.051-0.799c0.067-0.542,0.345-1.036,0.774-1.375
			C609.082,75.536,609.627,75.379,610.17,75.438z"/>
		
			<radialGradient id="SVGID_43_" cx="-50.4897" cy="587.2129" r="1.0002" gradientTransform="matrix(0.2603 -2.0592 -2.0336 -0.2571 1806.2866 148.9713)" gradientUnits="userSpaceOnUse">
			<stop  offset="0" style="stop-color:#003CEE"/>
			<stop  offset="0.06" style="stop-color:#0036D6"/>
			<stop  offset="0.2" style="stop-color:#00289E"/>
			<stop  offset="0.34" style="stop-color:#001C6D"/>
			<stop  offset="0.48" style="stop-color:#001246"/>
			<stop  offset="0.62" style="stop-color:#000A27"/>
			<stop  offset="0.75" style="stop-color:#000412"/>
			<stop  offset="0.88" style="stop-color:#000104"/>
			<stop  offset="1" style="stop-color:#000000"/>
		</radialGradient>
		<path fill="url(#SVGID_43_)" d="M599.228,99.771c0.269,0.033,0.526,0.119,0.761,0.252c0.234,0.134,0.439,0.313,0.604,0.527
			c0.165,0.214,0.285,0.458,0.355,0.719c0.068,0.26,0.086,0.532,0.05,0.8c-0.069,0.543-0.35,1.037-0.779,1.375
			c-0.43,0.338-0.977,0.492-1.52,0.43c-0.269-0.033-0.527-0.119-0.763-0.252c-0.233-0.134-0.439-0.313-0.604-0.527
			c-0.165-0.214-0.286-0.458-0.355-0.719c-0.069-0.261-0.087-0.533-0.051-0.801c0.069-0.543,0.35-1.037,0.78-1.375
			S598.684,99.708,599.228,99.771z"/>
	</g>
</g>
<image overflow="visible" width="3525" height="5034" xlink:href="../../../../../../../Desktop/me.png"  transform="matrix(0.1844 0 0 0.1844 -36 -16.5)">
</image>
</svg>
